# Blender v3.1.2 OBJ File: ''
# www.blender.org
mtllib Cave_Terrain_Corner_Inner_3x3_Mid_ALTERNATIVE.mtl
o object1
v -2.497134 1.000000 -0.155667
v -2.202098 1.000000 0.103073
v -2.497134 0.000000 -0.155667
v -2.202098 0.000000 0.103073
v -1.875814 1.000000 0.321089
v -1.875814 0.000000 0.321089
v -1.523864 1.000000 0.494651
v -1.523864 0.000000 0.494651
v -1.152271 1.000000 0.620790
v -1.152271 -0.000000 0.620790
v -0.767392 1.000000 0.697347
v -0.767392 -0.000000 0.697347
v -0.375814 1.000000 0.723013
v -0.375814 -0.000000 0.723013
v 0.015765 1.000000 0.697347
v 0.015765 -0.000000 0.697347
v 0.400643 1.000000 0.620790
v 0.400643 -0.000000 0.620790
v 0.772237 1.000000 0.494651
v 0.772237 -0.000000 0.494651
v 1.124186 1.000000 0.321089
v 1.124186 -0.000000 0.321089
v 1.450471 1.000000 0.103073
v 1.450471 -0.000000 0.103073
v 1.745507 1.000000 -0.155667
v 1.745507 -0.000000 -0.155667
vt 1.000000 1.000000
vt 1.000000 0.000000
vt 0.000000 1.000000
vt 0.000000 0.000000
vt 1.000000 1.000000
vt 1.000000 0.000000
vt 0.000000 1.000000
vt 0.000000 0.000000
vt 1.000000 1.000000
vt 1.000000 0.000000
vt 0.000000 1.000000
vt 0.000000 0.000000
vt 1.000000 1.000000
vt 1.000000 0.000000
vt 0.000000 1.000000
vt 0.000000 0.000000
vt 1.000000 1.000000
vt 1.000000 0.000000
vt 0.000000 1.000000
vt 0.000000 0.000000
vt 1.000000 1.000000
vt 1.000000 0.000000
vt 0.000000 1.000000
vt 0.000000 0.000000
vt 1.000000 1.000000
vt 1.000000 0.000000
vt 0.000000 1.000000
vt 0.000000 0.000000
vt 1.000000 1.000000
vt 1.000000 0.000000
vt 0.000000 1.000000
vt 0.000000 0.000000
vt 1.000000 1.000000
vt 1.000000 0.000000
vt 0.000000 1.000000
vt 0.000000 0.000000
vt 1.000000 1.000000
vt 1.000000 0.000000
vt 0.000000 1.000000
vt 0.000000 0.000000
vt 1.000000 1.000000
vt 1.000000 0.000000
vt 0.000000 1.000000
vt 0.000000 0.000000
vt 1.000000 1.000000
vt 1.000000 0.000000
vt 0.000000 1.000000
vt 0.000000 0.000000
vn 0.6593 0.0000 -0.7518
vn 0.5556 0.0000 -0.8315
vn 0.4423 0.0000 -0.8969
vn 0.3214 0.0000 -0.9469
vn 0.1951 0.0000 -0.9808
vn 0.0654 0.0000 -0.9979
vn -0.0654 0.0000 -0.9979
vn -0.1951 0.0000 -0.9808
vn -0.3214 0.0000 -0.9469
vn -0.4423 0.0000 -0.8969
vn -0.5556 0.0000 -0.8315
vn -0.6593 0.0000 -0.7518
usemtl Rock
s 1
f 1/1/1 2/2/1 3/3/1
f 2/2/1 4/4/1 3/3/1
f 2/5/2 5/6/2 4/7/2
f 5/6/2 6/8/2 4/7/2
f 5/9/3 7/10/3 6/11/3
f 7/10/3 8/12/3 6/11/3
f 7/13/4 9/14/4 8/15/4
f 9/14/4 10/16/4 8/15/4
f 9/17/5 11/18/5 10/19/5
f 11/18/5 12/20/5 10/19/5
f 11/21/6 13/22/6 12/23/6
f 13/22/6 14/24/6 12/23/6
f 13/25/7 15/26/7 14/27/7
f 15/26/7 16/28/7 14/27/7
f 15/29/8 17/30/8 16/31/8
f 17/30/8 18/32/8 16/31/8
f 17/33/9 19/34/9 18/35/9
f 19/34/9 20/36/9 18/35/9
f 19/37/10 21/38/10 20/39/10
f 21/38/10 22/40/10 20/39/10
f 21/41/11 23/42/11 22/43/11
f 23/42/11 24/44/11 22/43/11
f 23/45/12 25/46/12 24/47/12
f 25/46/12 26/48/12 24/47/12
