# Blender v3.1.2 OBJ File: ''
# www.blender.org
mtllib Materials_Modular_Terrain.mtl
o object1.006
v 0.190983 0.048943 0.500000
v 0.500000 -0.000000 0.500000
v 0.500000 0.000000 -0.500000
v 0.190983 0.048944 -0.500000
v -0.087785 0.190983 0.500000
v -0.087785 0.190983 -0.500000
v -0.309017 0.412215 0.500000
v -0.309017 0.412215 -0.500000
v -0.451057 0.690983 0.500000
v -0.451057 0.690983 -0.500000
v -0.500000 1.000000 0.500000
v -0.500000 1.000000 -0.500000
vt 1.000000 1.000000
vt 0.000000 0.000000
vt 1.000000 0.000000
vt 0.000000 1.000000
vt 1.000000 1.000000
vt 0.000000 0.000000
vt 1.000000 0.000000
vt 0.000000 1.000000
vt 1.000000 1.000000
vt 0.000000 0.000000
vt 1.000000 0.000000
vt 0.000000 1.000000
vt 1.000000 1.000000
vt 0.000000 0.000000
vt 1.000000 0.000000
vt 0.000000 1.000000
vt 1.000000 1.000000
vt 0.000000 0.000000
vt 1.000000 0.000000
vt 0.000000 1.000000
vn -0.1564 -0.9877 -0.0000
vn -0.4540 -0.8910 -0.0000
vn -0.7071 -0.7071 -0.0000
vn -0.8910 -0.4540 -0.0000
vn -0.9877 -0.1564 -0.0000
usemtl Rock
s 1
f 1/1/1 3/2/1 2/3/1
f 1/1/1 4/4/1 3/2/1
f 5/5/2 4/6/2 1/7/2
f 5/5/2 6/8/2 4/6/2
f 7/9/3 6/10/3 5/11/3
f 7/9/3 8/12/3 6/10/3
f 9/13/4 8/14/4 7/15/4
f 9/13/4 10/16/4 8/14/4
f 11/17/5 10/18/5 9/19/5
f 11/17/5 12/20/5 10/18/5
