# Blender v3.1.2 OBJ File: ''
# www.blender.org
mtllib Materials_Modular_Terrain.mtl
o object1.007
v 0.000000 0.075000 0.425000
v -0.500000 0.250000 1.000000
v 0.500000 0.250000 1.500000
v 0.224536 0.351982 1.599648
v 0.570644 0.425000 2.017946
v 0.500000 0.075000 0.500000
v -0.500000 0.075000 0.250000
v -1.000000 0.075000 0.075000
v -1.500000 0.250000 0.500000
v -1.000000 0.425000 1.225000
v -1.500000 0.425000 1.000000
v -1.500000 0.075000 0.000000
v -1.000000 0.000000 -0.500000
v 0.000000 0.000000 -0.500000
v 0.500000 0.000000 -0.500000
v -1.500000 0.000000 -0.500000
v -1.000000 0.500000 1.800000
v -1.500000 0.500000 1.500000
v -0.500000 0.425000 1.750000
v 0.000000 0.499999 2.196596
v 0.500000 0.499999 2.496596
v -0.500000 0.499999 2.496596
v -1.500000 0.500000 2.500000
vt 0.000000 0.000000
vt 1.000000 0.000000
vt 0.000000 1.000000
vt 0.225000 1.000000
vt 0.000000 0.099302
vt 1.000000 0.000000
vt 1.000000 0.000000
vt 0.000000 0.963250
vt 0.930233 1.000000
vt 1.000000 1.000000
vt 0.000000 0.557167
vt 0.621622 0.000000
vt 0.810811 0.500000
vt 1.000000 1.000000
vt 0.000000 0.000000
vt 1.000000 0.000000
vt 0.000000 1.000000
vt 1.000000 1.000000
vt 1.000000 0.220500
vt 0.310345 0.000000
vt 0.000000 1.000000
vt 0.850000 1.000000
vt 1.000000 0.068468
vt 0.000000 0.000000
vt 1.000000 0.000000
vt 1.000000 1.000000
vt 0.000000 0.000000
vt 0.500000 0.000000
vt 1.000000 1.000000
vt 0.000000 1.000000
vt 0.000000 1.000000
vt 1.000000 1.000000
vt 1.000000 0.000000
vt 0.000000 1.000000
vt 1.000000 0.000000
vt 0.000000 0.000000
vt 0.000000 1.000000
vt 0.500000 1.000000
vt 0.000000 0.000000
vt 0.500000 0.000000
vt 0.000000 1.000000
vt 0.000000 0.000000
vt 1.000000 1.000000
vt 1.000000 0.000000
vt 1.000000 0.000000
vt 0.000000 0.000000
vt 0.000000 1.000000
vt 0.300000 0.500000
vt 0.700000 0.500000
vt 0.000000 0.000000
vt 0.000000 1.000000
vt 1.000000 0.000000
vt 1.000000 0.328500
vt 0.823529 1.000000
vt 0.411765 0.500000
vt 0.000000 0.000000
vn 0.1032 0.9730 -0.2064
vn 0.1361 0.9679 -0.2111
vn 0.0832 0.9692 -0.2316
vn 0.2186 0.9165 -0.3349
vn 0.2164 0.9156 -0.3389
vn 0.1957 0.9279 -0.3172
vn 0.0258 0.9847 -0.1723
vn 0.0557 0.9810 -0.1856
vn 0.2215 0.9028 -0.3685
vn 0.1980 0.9001 -0.3881
vn 0.1621 0.9050 -0.3933
vn 0.0793 0.9708 -0.2265
vn 0.0870 0.9530 -0.2901
vn 0.1997 0.9374 -0.2853
vn 0.1703 0.9246 -0.3407
vn 0.1470 0.9336 -0.3268
vn 0.0495 0.9427 -0.3299
vn 0.0047 0.9918 -0.1280
vn 0.0057 0.9920 -0.1265
vn 0.0341 0.9904 -0.1343
vn 0.0055 0.9937 -0.1119
vn -0.0076 0.9952 -0.0975
vn 0.0003 0.9963 -0.0856
vn 0.0032 0.9973 -0.0736
vn 0.0051 0.9958 -0.0917
vn -0.0045 0.9970 -0.0778
vn 0.0233 0.9969 -0.0748
vn 0.0112 0.9971 -0.0748
vn 0.0100 0.9975 -0.0695
vn 0.0418 0.9960 -0.0788
vn 0.0265 0.9953 -0.0927
vn 0.0250 0.9970 -0.0736
vn -0.0117 0.9877 -0.1559
vn 0.0000 0.9889 -0.1483
vn 0.0058 0.9867 -0.1626
vn 0.0373 0.9923 -0.1178
vn 0.0420 0.9888 -0.1435
vn 0.0366 0.9895 -0.1398
vn 0.0774 0.9886 -0.1290
vn 0.0688 0.9910 -0.1147
vn 0.0965 0.9870 -0.1285
vn 0.0499 0.9878 -0.1475
vn 0.0666 0.9867 -0.1480
vn 0.0762 0.9835 -0.1643
vn 0.1112 0.9838 -0.1403
vn 0.1346 0.9826 -0.1282
vn 0.1641 0.9734 -0.1597
vn 0.0579 0.9946 -0.0860
vn 0.0952 0.9924 -0.0781
vn 0.0891 0.9885 -0.1220
vn 0.1026 0.9749 -0.1976
vn 0.0645 0.9724 -0.2243
vn 0.0528 0.9739 -0.2207
vn 0.0926 0.9856 -0.1413
vn 0.0852 0.9862 -0.1420
vn 0.0811 0.9873 -0.1367
vn -0.1631 0.9345 -0.3165
vn -0.1825 0.9361 -0.3008
vn -0.1948 0.9403 -0.2790
vn 0.1170 0.9897 -0.0831
vn 0.1777 0.9809 -0.0796
vn 0.1317 0.9837 -0.1228
vn 0.0000 1.0000 0.0000
vn 0.2321 0.9473 -0.2210
vn 0.0509 0.9726 -0.2269
usemtl Rock
s off
f 1/1/1 2/2/2 3/3/3
f 4/4/4 5/5/5 3/6/6
f 1/7/7 3/8/8 6/9/7
f 2/2/9 4/10/10 3/3/11
f 2/11/12 1/12/1 7/13/12
f 8/14/12 2/11/12 7/13/12
f 8/15/12 9/16/13 2/17/14
f 9/16/13 10/18/15 2/17/14
f 9/19/16 11/20/16 10/21/15
f 8/22/17 12/23/17 9/24/17
f 8/25/18 13/26/19 12/27/20
f 7/28/21 14/29/22 13/30/23
f 14/31/24 1/1/25 15/32/26
f 1/1/27 6/33/28 15/32/29
f 7/28/30 1/7/31 14/29/32
f 13/26/33 16/34/34 12/27/35
f 13/30/36 8/15/37 7/28/38
f 17/35/39 10/18/40 18/36/41
f 10/18/42 11/37/43 18/36/44
f 19/38/45 10/21/46 17/39/47
f 4/10/48 19/38/49 22/40/50
f 4/41/51 20/42/52 5/43/53
f 20/42/54 21/44/55 5/43/56
f 22/40/57 20/45/58 4/10/59
f 19/38/60 17/39/61 22/40/62
f 22/46/63 21/47/63 20/48/63
f 17/49/63 23/50/63 22/51/63
f 17/49/63 18/52/63 23/50/63
f 2/53/64 10/54/64 19/55/64
f 4/56/65 2/53/65 19/55/65
