{
    "asset" : {
        "generator" : "Khronos glTF Blender I/O v1.8.19",
        "version" : "2.0"
    },
    "scene" : 0,
    "scenes" : [
        {
            "name" : "Scene",
            "nodes" : [
                0
            ]
        }
    ],
    "nodes" : [
        {
            "mesh" : 0,
            "name" : "Barrel_Closed"
        }
    ],
    "materials" : [
        {
            "doubleSided" : true,
            "name" : "Wood_Basic",
            "pbrMetallicRoughness" : {
                "baseColorTexture" : {
                    "index" : 0
                },
                "metallicFactor" : 0,
                "roughnessFactor" : 0.9363636374473572
            }
        },
        {
            "doubleSided" : true,
            "name" : "Metal_Rusty",
            "pbrMetallicRoughness" : {
                "baseColorTexture" : {
                    "index" : 1
                },
                "metallicFactor" : 0.7812742590904236,
                "roughnessFactor" : 0.6334152221679688
            }
        }
    ],
    "meshes" : [
        {
            "name" : "Barrel_Closed",
            "primitives" : [
                {
                    "attributes" : {
                        "POSITION" : 0,
                        "NORMAL" : 1,
                        "TEXCOORD_0" : 2
                    },
                    "indices" : 3,
                    "material" : 0
                },
                {
                    "attributes" : {
                        "POSITION" : 4,
                        "NORMAL" : 5,
                        "TEXCOORD_0" : 6
                    },
                    "indices" : 7,
                    "material" : 1
                }
            ]
        }
    ],
    "textures" : [
        {
            "sampler" : 0,
            "source" : 0
        },
        {
            "sampler" : 0,
            "source" : 0
        }
    ],
    "images" : [
        {
            "bufferView" : 4,
            "mimeType" : "image/png",
            "name" : "MageRoomTexture"
        }
    ],
    "accessors" : [
        {
            "bufferView" : 0,
            "componentType" : 5126,
            "count" : 1213,
            "max" : [
                0.44249874353408813,
                0.9383898973464966,
                0.44249874353408813
            ],
            "min" : [
                -0.44249874353408813,
                -0.0034251809120178223,
                -0.44249874353408813
            ],
            "type" : "VEC3"
        },
        {
            "bufferView" : 1,
            "componentType" : 5126,
            "count" : 1213,
            "type" : "VEC3"
        },
        {
            "bufferView" : 2,
            "componentType" : 5126,
            "count" : 1213,
            "type" : "VEC2"
        },
        {
            "bufferView" : 3,
            "componentType" : 5123,
            "count" : 1812,
            "type" : "SCALAR"
        },
        {
            "bufferView" : 5,
            "componentType" : 5126,
            "count" : 768,
            "max" : [
                0.4473664164543152,
                0.9128918051719666,
                0.4473663568496704
            ],
            "min" : [
                -0.44736671447753906,
                0.007799476385116577,
                -0.4473666548728943
            ],
            "type" : "VEC3"
        },
        {
            "bufferView" : 6,
            "componentType" : 5126,
            "count" : 768,
            "type" : "VEC3"
        },
        {
            "bufferView" : 7,
            "componentType" : 5126,
            "count" : 768,
            "type" : "VEC2"
        },
        {
            "bufferView" : 8,
            "componentType" : 5123,
            "count" : 1152,
            "type" : "SCALAR"
        }
    ],
    "bufferViews" : [
        {
            "buffer" : 0,
            "byteLength" : 14556,
            "byteOffset" : 0
        },
        {
            "buffer" : 0,
            "byteLength" : 14556,
            "byteOffset" : 14556
        },
        {
            "buffer" : 0,
            "byteLength" : 9704,
            "byteOffset" : 29112
        },
        {
            "buffer" : 0,
            "byteLength" : 3624,
            "byteOffset" : 38816
        },
        {
            "buffer" : 0,
            "byteLength" : 1925,
            "byteOffset" : 42440
        },
        {
            "buffer" : 0,
            "byteLength" : 9216,
            "byteOffset" : 44368
        },
        {
            "buffer" : 0,
            "byteLength" : 9216,
            "byteOffset" : 53584
        },
        {
            "buffer" : 0,
            "byteLength" : 6144,
            "byteOffset" : 62800
        },
        {
            "buffer" : 0,
            "byteLength" : 2304,
            "byteOffset" : 68944
        }
    ],
    "samplers" : [
        {
            "magFilter" : 9729,
            "minFilter" : 9987
        }
    ],
    "buffers" : [
        {
            "byteLength" : 71248,
            "uri" : "data:application/octet-stream;base64,"
        }
    ]
}
