{
    "asset" : {
        "generator" : "Khronos glTF Blender I/O v1.8.19",
        "version" : "2.0"
    },
    "scene" : 0,
    "scenes" : [
        {
            "name" : "Scene",
            "nodes" : [
                0
            ]
        }
    ],
    "nodes" : [
        {
            "mesh" : 0,
            "name" : "Carpet_Green"
        }
    ],
    "materials" : [
        {
            "doubleSided" : true,
            "name" : "Diffuse_Default",
            "pbrMetallicRoughness" : {
                "baseColorTexture" : {
                    "index" : 0
                },
                "metallicFactor" : 0,
                "roughnessFactor" : 0.9363636374473572
            }
        }
    ],
    "meshes" : [
        {
            "name" : "Carpet_Green",
            "primitives" : [
                {
                    "attributes" : {
                        "POSITION" : 0,
                        "NORMAL" : 1,
                        "TEXCOORD_0" : 2
                    },
                    "indices" : 3,
                    "material" : 0
                }
            ]
        }
    ],
    "textures" : [
        {
            "sampler" : 0,
            "source" : 0
        }
    ],
    "images" : [
        {
            "bufferView" : 4,
            "mimeType" : "image/png",
            "name" : "MageRoomTexture"
        }
    ],
    "accessors" : [
        {
            "bufferView" : 0,
            "componentType" : 5126,
            "count" : 326,
            "max" : [
                2.1689343452453613,
                0.019616272300481796,
                1.5000001192092896
            ],
            "min" : [
                -2.1689348220825195,
                0,
                -1.5000001192092896
            ],
            "type" : "VEC3"
        },
        {
            "bufferView" : 1,
            "componentType" : 5126,
            "count" : 326,
            "type" : "VEC3"
        },
        {
            "bufferView" : 2,
            "componentType" : 5126,
            "count" : 326,
            "type" : "VEC2"
        },
        {
            "bufferView" : 3,
            "componentType" : 5123,
            "count" : 582,
            "type" : "SCALAR"
        }
    ],
    "bufferViews" : [
        {
            "buffer" : 0,
            "byteLength" : 3912,
            "byteOffset" : 0
        },
        {
            "buffer" : 0,
            "byteLength" : 3912,
            "byteOffset" : 3912
        },
        {
            "buffer" : 0,
            "byteLength" : 2608,
            "byteOffset" : 7824
        },
        {
            "buffer" : 0,
            "byteLength" : 1164,
            "byteOffset" : 10432
        },
        {
            "buffer" : 0,
            "byteLength" : 1925,
            "byteOffset" : 11596
        }
    ],
    "samplers" : [
        {
            "magFilter" : 9729,
            "minFilter" : 9987
        }
    ],
    "buffers" : [
        {
            "byteLength" : 13524,
            "uri" : "data:application/octet-stream;base64,"
        }
    ]
}
