{
    "asset" : {
        "generator" : "Khronos glTF Blender I/O v1.8.19",
        "version" : "2.0"
    },
    "scene" : 0,
    "scenes" : [
        {
            "name" : "Scene",
            "nodes" : [
                0
            ]
        }
    ],
    "nodes" : [
        {
            "mesh" : 0,
            "name" : "Fireplace"
        }
    ],
    "materials" : [
        {
            "doubleSided" : true,
            "name" : "Metal_Rusty",
            "pbrMetallicRoughness" : {
                "baseColorTexture" : {
                    "index" : 0
                },
                "metallicFactor" : 0.7812742590904236,
                "roughnessFactor" : 0.6334152221679688
            }
        },
        {
            "doubleSided" : true,
            "name" : "Stone_Wall",
            "pbrMetallicRoughness" : {
                "baseColorTexture" : {
                    "index" : 1
                },
                "metallicFactor" : 0
            }
        },
        {
            "doubleSided" : true,
            "name" : "Wood_Basic",
            "pbrMetallicRoughness" : {
                "baseColorTexture" : {
                    "index" : 2
                },
                "metallicFactor" : 0,
                "roughnessFactor" : 0.9363636374473572
            }
        }
    ],
    "meshes" : [
        {
            "name" : "Fireplace",
            "primitives" : [
                {
                    "attributes" : {
                        "POSITION" : 0,
                        "NORMAL" : 1,
                        "TEXCOORD_0" : 2
                    },
                    "indices" : 3,
                    "material" : 0
                },
                {
                    "attributes" : {
                        "POSITION" : 4,
                        "NORMAL" : 5,
                        "TEXCOORD_0" : 6
                    },
                    "indices" : 7,
                    "material" : 1
                },
                {
                    "attributes" : {
                        "POSITION" : 8,
                        "NORMAL" : 9,
                        "TEXCOORD_0" : 10
                    },
                    "indices" : 11,
                    "material" : 2
                }
            ]
        }
    ],
    "textures" : [
        {
            "sampler" : 0,
            "source" : 0
        },
        {
            "sampler" : 0,
            "source" : 0
        },
        {
            "sampler" : 0,
            "source" : 0
        }
    ],
    "images" : [
        {
            "bufferView" : 4,
            "mimeType" : "image/png",
            "name" : "MageRoomTexture"
        }
    ],
    "accessors" : [
        {
            "bufferView" : 0,
            "componentType" : 5126,
            "count" : 52,
            "max" : [
                0.7575014233589172,
                1.2494136095046997,
                0.7764288187026978
            ],
            "min" : [
                -0.6736403107643127,
                1.1685749292373657,
                0.7404288053512573
            ],
            "type" : "VEC3"
        },
        {
            "bufferView" : 1,
            "componentType" : 5126,
            "count" : 52,
            "type" : "VEC3"
        },
        {
            "bufferView" : 2,
            "componentType" : 5126,
            "count" : 52,
            "type" : "VEC2"
        },
        {
            "bufferView" : 3,
            "componentType" : 5123,
            "count" : 288,
            "type" : "SCALAR"
        },
        {
            "bufferView" : 5,
            "componentType" : 5126,
            "count" : 800,
            "max" : [
                1.123885154724121,
                4.320839881896973,
                1.395555019378662
            ],
            "min" : [
                -1.1238850355148315,
                -0.017780303955078125,
                0.05372726917266846
            ],
            "type" : "VEC3"
        },
        {
            "bufferView" : 6,
            "componentType" : 5126,
            "count" : 800,
            "type" : "VEC3"
        },
        {
            "bufferView" : 7,
            "componentType" : 5126,
            "count" : 800,
            "type" : "VEC2"
        },
        {
            "bufferView" : 8,
            "componentType" : 5123,
            "count" : 1248,
            "type" : "SCALAR"
        },
        {
            "bufferView" : 9,
            "componentType" : 5126,
            "count" : 84,
            "max" : [
                0.5436375737190247,
                0.24552568793296814,
                1.0399304628372192
            ],
            "min" : [
                -0.31346791982650757,
                0.07103282958269119,
                0.39848071336746216
            ],
            "type" : "VEC3"
        },
        {
            "bufferView" : 10,
            "componentType" : 5126,
            "count" : 84,
            "type" : "VEC3"
        },
        {
            "bufferView" : 11,
            "componentType" : 5126,
            "count" : 84,
            "type" : "VEC2"
        },
        {
            "bufferView" : 12,
            "componentType" : 5123,
            "count" : 144,
            "type" : "SCALAR"
        }
    ],
    "bufferViews" : [
        {
            "buffer" : 0,
            "byteLength" : 624,
            "byteOffset" : 0
        },
        {
            "buffer" : 0,
            "byteLength" : 624,
            "byteOffset" : 624
        },
        {
            "buffer" : 0,
            "byteLength" : 416,
            "byteOffset" : 1248
        },
        {
            "buffer" : 0,
            "byteLength" : 576,
            "byteOffset" : 1664
        },
        {
            "buffer" : 0,
            "byteLength" : 1925,
            "byteOffset" : 2240
        },
        {
            "buffer" : 0,
            "byteLength" : 9600,
            "byteOffset" : 4168
        },
        {
            "buffer" : 0,
            "byteLength" : 9600,
            "byteOffset" : 13768
        },
        {
            "buffer" : 0,
            "byteLength" : 6400,
            "byteOffset" : 23368
        },
        {
            "buffer" : 0,
            "byteLength" : 2496,
            "byteOffset" : 29768
        },
        {
            "buffer" : 0,
            "byteLength" : 1008,
            "byteOffset" : 32264
        },
        {
            "buffer" : 0,
            "byteLength" : 1008,
            "byteOffset" : 33272
        },
        {
            "buffer" : 0,
            "byteLength" : 672,
            "byteOffset" : 34280
        },
        {
            "buffer" : 0,
            "byteLength" : 288,
            "byteOffset" : 34952
        }
    ],
    "samplers" : [
        {
            "magFilter" : 9729,
            "minFilter" : 9987
        }
    ],
    "buffers" : [
        {
            "byteLength" : 35240,
            "uri" : "data:application/octet-stream;base64,"
        }
    ]
}
