{
    "asset" : {
        "generator" : "Khronos glTF Blender I/O v1.8.19",
        "version" : "2.0"
    },
    "scene" : 0,
    "scenes" : [
        {
            "name" : "Scene",
            "nodes" : [
                0
            ]
        }
    ],
    "nodes" : [
        {
            "mesh" : 0,
            "name" : "Table_Small"
        }
    ],
    "materials" : [
        {
            "doubleSided" : true,
            "name" : "Wood_Basic",
            "pbrMetallicRoughness" : {
                "baseColorTexture" : {
                    "index" : 0
                },
                "metallicFactor" : 0,
                "roughnessFactor" : 0.9363636374473572
            }
        }
    ],
    "meshes" : [
        {
            "name" : "Table_Small",
            "primitives" : [
                {
                    "attributes" : {
                        "POSITION" : 0,
                        "NORMAL" : 1,
                        "TEXCOORD_0" : 2
                    },
                    "indices" : 3,
                    "material" : 0
                }
            ]
        }
    ],
    "textures" : [
        {
            "sampler" : 0,
            "source" : 0
        }
    ],
    "images" : [
        {
            "bufferView" : 4,
            "mimeType" : "image/png",
            "name" : "MageRoomTexture"
        }
    ],
    "accessors" : [
        {
            "bufferView" : 0,
            "componentType" : 5126,
            "count" : 1262,
            "max" : [
                1.4261467456817627,
                0.8600000739097595,
                0.7333791851997375
            ],
            "min" : [
                -1.4309322834014893,
                -0.001495436066761613,
                -0.6937810778617859
            ],
            "type" : "VEC3"
        },
        {
            "bufferView" : 1,
            "componentType" : 5126,
            "count" : 1262,
            "type" : "VEC3"
        },
        {
            "bufferView" : 2,
            "componentType" : 5126,
            "count" : 1262,
            "type" : "VEC2"
        },
        {
            "bufferView" : 3,
            "componentType" : 5123,
            "count" : 1842,
            "type" : "SCALAR"
        }
    ],
    "bufferViews" : [
        {
            "buffer" : 0,
            "byteLength" : 15144,
            "byteOffset" : 0
        },
        {
            "buffer" : 0,
            "byteLength" : 15144,
            "byteOffset" : 15144
        },
        {
            "buffer" : 0,
            "byteLength" : 10096,
            "byteOffset" : 30288
        },
        {
            "buffer" : 0,
            "byteLength" : 3684,
            "byteOffset" : 40384
        },
        {
            "buffer" : 0,
            "byteLength" : 1925,
            "byteOffset" : 44068
        }
    ],
    "samplers" : [
        {
            "magFilter" : 9729,
            "minFilter" : 9987
        }
    ],
    "buffers" : [
        {
            "byteLength" : 45996,
            "uri" : "data:application/octet-stream;base64,"
        }
    ]
}
