# Blender v3.1.2 OBJ File: 'torch.blend'
# www.blender.org
mtllib torch.mtl
o Torch_Torch.001
v -0.000000 -0.346338 -0.025591
v -0.000000 0.288272 -0.036844
v 0.022162 -0.346338 -0.012795
v 0.031908 0.288272 -0.018422
v 0.022162 -0.346338 0.012795
v 0.031908 0.288272 0.018422
v -0.000000 -0.346338 0.025591
v -0.000000 0.288272 0.036844
v -0.022162 -0.346338 0.012795
v -0.031908 0.288272 0.018422
v -0.022162 -0.346338 -0.012795
v -0.031908 0.288272 -0.018422
v -0.000000 -0.374676 -0.013197
v 0.011428 -0.374676 -0.006598
v 0.011428 -0.374676 0.006598
v -0.000000 -0.374676 0.013197
v -0.011429 -0.374676 0.006598
v -0.011429 -0.374676 -0.006598
v 0.027775 0.331300 -0.016036
v -0.000000 0.331300 -0.032072
v 0.027775 0.331300 0.016036
v -0.000000 0.331300 0.032072
v -0.027775 0.331300 0.016036
v -0.027775 0.331300 -0.016036
v 0.042240 0.344885 -0.024387
v 0.000000 0.344885 -0.048774
v 0.042240 0.344885 0.024387
v 0.000000 0.344885 0.048774
v -0.042240 0.344885 0.024387
v -0.042240 0.344885 -0.024387
v 0.042240 0.427388 -0.024387
v 0.000000 0.427388 -0.048774
v 0.042240 0.427388 0.024387
v 0.000000 0.427388 0.048774
v -0.042240 0.427388 0.024387
v -0.042240 0.427388 -0.024387
v 0.030422 0.441265 -0.017564
v -0.000000 0.441265 -0.035128
v 0.030422 0.441265 0.017564
v -0.000000 0.441265 0.035128
v -0.030422 0.441265 0.017564
v -0.030422 0.441265 -0.017564
v 0.045761 0.386136 0.026420
v 0.000000 0.386136 0.052840
v 0.000000 0.386136 -0.052840
v 0.045761 0.386136 -0.026420
v -0.045761 0.386136 -0.026420
v -0.045761 0.386136 0.026420
v 0.044842 0.375364 -0.025889
v 0.044045 0.366032 -0.025429
v 0.000000 0.367390 -0.050993
v 0.044126 0.366984 0.025476
v 0.000000 0.396258 0.051843
v 0.044905 0.396160 -0.025926
v 0.045267 0.391922 0.026135
v 0.044778 0.397653 0.025853
v 0.029605 0.386136 -0.035748
v 0.042448 0.347321 -0.024507
v 0.042676 0.349995 0.024639
v 0.043143 0.355468 0.024909
v -0.043344 0.357820 0.025025
v 0.000000 0.368136 0.051066
v 0.000000 0.351794 0.049455
v -0.045191 0.379458 -0.026091
v 0.000000 0.378786 0.052116
v -0.044711 0.373838 0.025814
v -0.043374 0.358176 -0.025042
v -0.042714 0.350436 0.024661
v -0.023448 0.352688 -0.036006
v 0.000000 0.357820 -0.050049
v 0.042761 0.350986 -0.024688
v -0.012785 0.390373 -0.045041
v -0.024623 0.375527 -0.037579
v -0.044578 0.400000 0.025737
v 0.000000 0.407838 -0.050701
v -0.044930 0.395871 -0.025940
v -0.043784 0.409300 -0.025279
v 0.000000 0.420356 -0.049467
v 0.042577 0.423438 -0.024582
v 0.043741 0.409799 -0.025254
v 0.043308 0.414876 0.025004
v 0.043892 0.408031 0.025341
v -0.043408 0.413699 0.025062
v 0.000000 0.419367 0.049565
v 0.000000 0.404801 0.051001
v -0.034078 0.436972 -0.019675
v -0.038391 0.431907 0.022165
v -0.000000 0.434115 -0.042159
v 0.003622 0.427388 0.046683
v 0.033873 0.437212 0.019557
v 0.033873 0.437212 0.019557
v 0.042240 0.427388 -0.009285
v -0.000000 0.301017 0.028118
v -0.024351 0.301017 0.014059
v 0.024351 0.301017 -0.014059
v 0.024351 0.301017 0.014059
v -0.024351 0.301017 -0.014059
v -0.000000 0.301017 -0.028118
vt 0.227609 0.958546
vt 0.227609 0.958546
vt 0.227609 0.958546
vt 0.227609 0.958546
vt 0.227609 0.958546
vt 0.227609 0.958546
vt 0.227609 0.958546
vt 0.227609 0.958546
vt 0.227609 0.958546
vt 0.227609 0.958546
vt 0.227609 0.958546
vt 0.227609 0.958546
vt 0.227609 0.958546
vt 0.227609 0.958546
vt 0.227609 0.958546
vt 0.227609 0.958546
vt 0.227609 0.958546
vt 0.227609 0.958546
vt 0.227609 0.958546
vt 0.227609 0.958546
vt 0.227609 0.958546
vt 0.227609 0.958546
vt 0.322277 0.955504
vt 0.322277 0.955504
vt 0.322277 0.955504
vt 0.322277 0.955504
vt 0.227609 0.958546
vt 0.227609 0.958546
vt 0.227609 0.958546
vt 0.227609 0.958546
vt 0.227609 0.958546
vt 0.227609 0.958546
vt 0.227609 0.958546
vt 0.227609 0.958546
vt 0.322277 0.955504
vt 0.322277 0.955504
vt 0.322277 0.955504
vt 0.322277 0.955504
vt 0.322277 0.955504
vt 0.322277 0.955504
vt 0.322277 0.955504
vt 0.322277 0.955504
vt 0.322277 0.955504
vt 0.322277 0.955504
vt 0.322277 0.955504
vt 0.322277 0.955504
vt 0.322277 0.955504
vt 0.322277 0.955504
vt 0.322277 0.955504
vt 0.322277 0.955504
vt 0.322277 0.955504
vt 0.322277 0.955504
vt 0.322277 0.955504
vt 0.322277 0.955504
vt 0.322277 0.955504
vt 0.322277 0.955504
vt 0.322277 0.955504
vt 0.322277 0.955504
vt 0.322277 0.955504
vt 0.322277 0.955504
vt 0.322277 0.955504
vt 0.322277 0.955504
vt 0.322277 0.955504
vt 0.322277 0.955504
vt 0.322277 0.955504
vt 0.322277 0.955504
vt 0.322277 0.955504
vt 0.322277 0.955504
vt 0.322277 0.955504
vt 0.322277 0.955504
vt 0.322277 0.955504
vt 0.322277 0.955504
vt 0.322277 0.955504
vt 0.322277 0.955504
vt 0.322277 0.955504
vt 0.322277 0.955504
vt 0.322277 0.955504
vt 0.322277 0.955504
vt 0.322277 0.955504
vt 0.322277 0.955504
vt 0.322277 0.955504
vt 0.322277 0.955504
vt 0.322277 0.955504
vt 0.322277 0.955504
vt 0.322277 0.955504
vt 0.322277 0.955504
vt 0.322277 0.955504
vt 0.322277 0.955504
vt 0.322277 0.955504
vt 0.322277 0.955504
vt 0.322277 0.955504
vt 0.322277 0.955504
vt 0.322277 0.955504
vt 0.322277 0.955504
vt 0.322277 0.955504
vt 0.322277 0.955504
vt 0.322277 0.955504
vt 0.322277 0.955504
vt 0.322277 0.955504
vt 0.322277 0.955504
vt 0.322277 0.955504
vt 0.322277 0.955504
vt 0.322277 0.955504
vt 0.327050 0.777135
vt 0.327050 0.777135
vt 0.327050 0.777135
vt 0.327050 0.777135
vt 0.327050 0.777135
vt 0.327050 0.777135
vt 0.327050 0.777135
vt 0.327050 0.777135
vt 0.327050 0.777135
vt 0.327050 0.777135
vt 0.327050 0.777135
vt 0.327050 0.777135
vt 0.327050 0.777135
vt 0.327050 0.777135
vt 0.327050 0.777135
vt 0.327050 0.777135
vt 0.327050 0.777135
vt 0.327050 0.777135
vt 0.327050 0.777135
vt 0.327050 0.777135
vt 0.327050 0.777135
vt 0.327050 0.777135
vt 0.327050 0.777135
vt 0.327050 0.777135
vt 0.327050 0.777135
vt 0.327050 0.777135
vt 0.327050 0.777135
vt 0.327050 0.777135
vt 0.327050 0.777135
vt 0.327050 0.777135
vt 0.327050 0.777135
vt 0.327050 0.777135
vt 0.327050 0.777135
vt 0.327050 0.777135
vt 0.327050 0.777135
vt 0.327050 0.777135
vt 0.327050 0.777135
vt 0.327050 0.777135
vt 0.327050 0.777135
vt 0.327050 0.777135
vt 0.327050 0.777135
vt 0.327050 0.777135
vt 0.327050 0.777135
vt 0.327050 0.777135
vt 0.327050 0.777135
vt 0.327050 0.777135
vt 0.327050 0.777135
vt 0.327050 0.777135
vt 0.327050 0.777135
vt 0.327050 0.777135
vt 0.327050 0.777135
vt 0.327050 0.777135
vn 0.4999 -0.0154 -0.8659
vn 0.9999 -0.0154 0.0000
vn 0.4999 -0.0154 0.8659
vn -0.4999 -0.0154 0.8659
vn -0.4968 -0.1123 0.8605
vn -0.9999 -0.0154 0.0000
vn -0.4999 -0.0154 -0.8659
vn 0.4676 -0.3542 -0.8099
vn 0.0000 -1.0000 0.0000
vn 0.4676 -0.3542 0.8099
vn -0.4676 -0.3542 -0.8099
vn -0.4676 -0.3542 0.8099
vn 0.9352 -0.3542 0.0000
vn -0.9352 -0.3542 0.0000
vn -0.3423 -0.7289 0.5929
vn 0.9937 -0.1123 0.0000
vn -0.9937 -0.1123 0.0000
vn 0.4968 -0.1123 -0.8605
vn 0.4968 -0.1123 0.8605
vn -0.4968 -0.1123 -0.8605
vn 0.4982 0.0850 0.8629
vn 0.6846 -0.7289 0.0000
vn -0.6846 -0.7289 0.0000
vn 0.3423 -0.7289 0.5929
vn 0.3423 -0.7289 -0.5929
vn -0.3423 -0.7289 -0.5929
vn -0.4982 0.0850 -0.8629
vn -0.4982 0.0850 0.8629
vn 0.9964 0.0850 0.0000
vn -0.9964 0.0850 -0.0000
vn 0.0000 1.0000 -0.0000
vn -0.7613 0.6483 0.0000
vn 0.3807 0.6484 0.6593
vn 0.3807 0.6484 -0.6593
vn -0.3807 0.6483 -0.6593
vn -0.3807 0.6484 0.6593
vn -0.9964 -0.0850 0.0000
vn 0.9964 -0.0850 0.0000
vn -0.4982 -0.0850 0.8629
vn 0.4982 -0.0850 -0.8629
vn 0.4982 -0.0850 0.8629
vn 0.4982 0.0850 -0.8629
vn -0.4982 -0.0850 -0.8629
vn -0.3807 0.6484 -0.6593
vn -0.7613 0.6484 -0.0000
vn 0.7613 0.6484 -0.0000
vn -0.4301 0.5100 -0.7449
vn 0.4301 0.5100 0.7449
vn 0.4301 0.5100 -0.7449
vn -0.8602 0.5100 0.0000
vn 0.8602 0.5100 0.0000
vn -0.4301 0.5100 0.7449
vn 0.9964 -0.0851 0.0000
usemtl Wood_Basic.003
s off
f 1/1/1 2/2/1 4/3/1 3/4/1
f 3/4/2 4/3/2 6/5/2 5/6/2
f 5/6/3 6/5/3 8/7/3 7/8/3
f 7/8/4 8/7/4 10/9/4 9/10/4
f 94/11/5 93/12/5 22/13/5 23/14/5
f 9/10/6 10/9/6 12/15/6 11/16/6
f 11/16/7 12/15/7 2/2/7 1/1/7
f 1/1/8 3/4/8 14/17/8 13/18/8
f 13/18/9 14/17/9 15/19/9 16/20/9 17/21/9 18/22/9
f 5/6/10 7/8/10 16/20/10 15/19/10
f 11/16/11 1/1/11 13/18/11 18/22/11
f 7/8/12 9/10/12 17/21/12 16/20/12
f 3/4/13 5/6/13 15/19/13 14/17/13
f 9/10/14 11/16/14 18/22/14 17/21/14
f 23/23/15 22/24/15 28/25/15 29/26/15
f 96/27/16 95/28/16 19/29/16 21/30/16
f 97/31/17 94/11/17 23/14/17 24/32/17
f 95/28/18 98/33/18 20/34/18 19/29/18
f 93/12/19 96/27/19 21/30/19 22/13/19
f 98/33/20 97/31/20 24/32/20 20/34/20
f 44/35/21 43/36/21 55/37/21 53/38/21
f 21/39/22 19/40/22 25/41/22 27/42/22
f 24/43/23 23/23/23 29/26/23 30/44/23
f 22/24/24 21/39/24 27/42/24 28/25/24
f 19/40/25 20/45/25 26/46/25 25/41/25
f 20/45/26 24/43/26 30/44/26 26/46/26
f 45/47/27 72/48/27 47/49/27 76/50/27 75/51/27
f 48/52/28 44/35/28 53/38/28 85/53/28 83/54/28 74/55/28
f 43/36/29 46/56/29 55/37/29
f 47/49/30 48/52/30 74/55/30 76/50/30
f 37/57/31 38/58/31 42/59/31 41/60/31 40/61/31 39/62/31
f 36/63/32 35/64/32 87/65/32
f 34/66/33 89/67/33 90/68/33 39/62/33 40/61/33
f 31/69/34 32/70/34 88/71/34 38/58/34 37/57/34
f 32/70/35 36/63/35 88/71/35
f 35/64/36 34/66/36 40/61/36 41/60/36 87/65/36
f 30/44/37 29/26/37 68/72/37
f 27/42/38 25/41/38 58/73/38 59/74/38
f 29/26/39 28/25/39 63/75/39 61/76/39 68/72/39
f 25/41/40 26/46/40 71/77/40 58/73/40
f 28/25/41 27/42/41 59/74/41 63/75/41
f 49/78/40 51/79/40 45/47/40 57/80/40 46/56/40
f 52/81/38 49/78/38 46/56/38 43/36/38
f 56/82/29 54/83/29 80/84/29 81/85/29 82/86/29
f 56/82/21 82/86/21 85/53/21 53/38/21
f 54/83/42 57/80/42 45/47/42 75/51/42 78/87/42 80/84/42
f 60/88/38 58/73/38 71/77/38 50/89/38 52/81/38
f 62/90/41 60/88/41 52/81/41 43/36/41 44/35/41 65/91/41
f 62/90/39 65/91/39 66/92/39 61/76/39
f 64/93/37 48/52/37 47/49/37
f 48/52/39 65/91/39 44/35/39
f 68/72/37 61/76/37 66/92/37 64/93/37 67/94/37
f 70/95/43 69/96/43 67/94/43 64/93/43 47/49/43 73/97/43 45/47/43 51/79/43
f 69/96/43 26/46/43 30/44/43
f 70/95/40 51/79/40 50/89/40 71/77/40
f 77/98/30 74/55/30 83/54/30 35/64/30 36/63/30
f 75/51/27 77/98/27 36/63/27 32/70/27 78/87/27
f 79/99/42 78/87/42 32/70/42 31/69/42
f 81/85/29 79/99/29 31/69/29 92/100/29 33/101/29
f 84/102/28 34/66/28 35/64/28 83/54/28
f 84/102/21 82/86/21 81/85/21 33/101/21 89/67/21 34/66/21
f 88/71/44 86/103/44 42/59/44 38/58/44
f 87/65/45 41/60/45 42/59/45 86/103/45
f 90/68/46 92/100/46 31/69/46 37/57/46 39/62/46
f 2/2/47 12/15/47 97/31/47 98/33/47
f 8/7/48 6/5/48 96/27/48 93/12/48
f 4/3/49 2/2/49 98/33/49 95/28/49
f 12/15/50 10/9/50 94/11/50 97/31/50
f 6/5/51 4/3/51 95/28/51 96/27/51
f 10/9/52 8/7/52 93/12/52 94/11/52
usemtl Ember.003
f 33/104/46 92/105/46 90/106/46 91/107/46
f 46/108/42 57/109/42 54/110/42
f 26/111/43 69/112/43 70/113/43
f 50/114/40 51/115/40 49/116/40
f 49/116/38 52/117/38 50/114/38
f 55/118/29 46/108/29 54/110/29 56/119/29
f 53/120/21 55/118/21 56/119/21
f 59/121/53 58/122/53 60/123/53
f 63/124/41 59/121/41 60/123/41 62/125/41
f 61/126/39 63/124/39 62/125/39
f 48/127/37 64/128/37 66/129/37
f 66/129/39 65/130/39 48/127/39
f 67/131/43 69/112/43 30/132/43
f 67/131/37 30/132/37 68/133/37
f 71/134/40 26/111/40 70/113/40
f 47/135/27 72/136/27 45/137/27
f 45/137/43 73/138/43 47/135/43
f 76/139/30 74/140/30 77/141/30
f 77/141/27 75/142/27 76/139/27
f 80/143/42 78/144/42 79/145/42
f 79/145/29 81/146/29 80/143/29
f 83/147/28 85/148/28 84/149/28
f 85/148/21 82/150/21 84/149/21
f 86/151/44 88/152/44 36/153/44
f 86/151/45 36/153/45 87/154/45
f 90/106/33 89/155/33 33/104/33 91/107/33
