{
    "asset" : {
        "generator" : "Khronos glTF Blender I/O v1.8.19",
        "version" : "2.0"
    },
    "scene" : 0,
    "scenes" : [
        {
            "name" : "Scene",
            "nodes" : [
                0,
                1,
                2,
                3
            ]
        }
    ],
    "nodes" : [
        {
            "mesh" : 0,
            "name" : "Book_Big_Red",
            "rotation" : [
                0,
                -0.7071067690849304,
                0,
                0.7071068286895752
            ],
            "translation" : [
                0.07425761222839355,
                0,
                -0.050811767578125
            ]
        },
        {
            "mesh" : 1,
            "name" : "Book_Big_Green",
            "rotation" : [
                0,
                -0.7071067690849304,
                0,
                0.7071068286895752
            ],
            "translation" : [
                -0.3250809907913208,
                0,
                -0.050811767578125
            ]
        },
        {
            "mesh" : 2,
            "name" : "Book_Big_DeepRed",
            "rotation" : [
                0,
                -0.7071067690849304,
                0,
                0.7071068286895752
            ],
            "translation" : [
                0.263993501663208,
                0,
                -0.050811767578125
            ]
        },
        {
            "mesh" : 3,
            "name" : "Book_Big_Brown",
            "rotation" : [
                0,
                -0.7071067690849304,
                0,
                0.7071068286895752
            ],
            "translation" : [
                -0.12114441394805908,
                0,
                -0.050811767578125
            ]
        }
    ],
    "materials" : [
        {
            "doubleSided" : true,
            "name" : "Paper",
            "pbrMetallicRoughness" : {
                "baseColorTexture" : {
                    "index" : 0
                },
                "metallicFactor" : 0,
                "roughnessFactor" : 0.8999999761581421
            }
        },
        {
            "doubleSided" : true,
            "name" : "Diffuse_Default",
            "pbrMetallicRoughness" : {
                "baseColorTexture" : {
                    "index" : 1
                },
                "metallicFactor" : 0,
                "roughnessFactor" : 0.9363636374473572
            }
        }
    ],
    "meshes" : [
        {
            "name" : "Book_Big_Red",
            "primitives" : [
                {
                    "attributes" : {
                        "POSITION" : 0,
                        "NORMAL" : 1,
                        "TEXCOORD_0" : 2
                    },
                    "indices" : 3,
                    "material" : 0
                },
                {
                    "attributes" : {
                        "POSITION" : 4,
                        "NORMAL" : 5,
                        "TEXCOORD_0" : 6
                    },
                    "indices" : 7,
                    "material" : 1
                }
            ]
        },
        {
            "name" : "Book_Big_Green",
            "primitives" : [
                {
                    "attributes" : {
                        "POSITION" : 8,
                        "NORMAL" : 9,
                        "TEXCOORD_0" : 10
                    },
                    "indices" : 3,
                    "material" : 0
                },
                {
                    "attributes" : {
                        "POSITION" : 11,
                        "NORMAL" : 12,
                        "TEXCOORD_0" : 13
                    },
                    "indices" : 7,
                    "material" : 1
                }
            ]
        },
        {
            "name" : "Book_Big_DeepRed",
            "primitives" : [
                {
                    "attributes" : {
                        "POSITION" : 14,
                        "NORMAL" : 15,
                        "TEXCOORD_0" : 16
                    },
                    "indices" : 3,
                    "material" : 0
                },
                {
                    "attributes" : {
                        "POSITION" : 17,
                        "NORMAL" : 18,
                        "TEXCOORD_0" : 19
                    },
                    "indices" : 7,
                    "material" : 1
                }
            ]
        },
        {
            "name" : "Book_Big_Brown",
            "primitives" : [
                {
                    "attributes" : {
                        "POSITION" : 20,
                        "NORMAL" : 21,
                        "TEXCOORD_0" : 22
                    },
                    "indices" : 3,
                    "material" : 0
                },
                {
                    "attributes" : {
                        "POSITION" : 23,
                        "NORMAL" : 24,
                        "TEXCOORD_0" : 25
                    },
                    "indices" : 7,
                    "material" : 1
                }
            ]
        }
    ],
    "textures" : [
        {
            "sampler" : 0,
            "source" : 0
        },
        {
            "sampler" : 0,
            "source" : 0
        }
    ],
    "images" : [
        {
            "bufferView" : 4,
            "mimeType" : "image/png",
            "name" : "MageRoomTexture"
        }
    ],
    "accessors" : [
        {
            "bufferView" : 0,
            "componentType" : 5126,
            "count" : 16,
            "max" : [
                0.19436122477054596,
                0.4390440881252289,
                0.059891704469919205
            ],
            "min" : [
                -0.15700072050094604,
                0.010441900230944157,
                -0.059914905577898026
            ],
            "type" : "VEC3"
        },
        {
            "bufferView" : 1,
            "componentType" : 5126,
            "count" : 16,
            "type" : "VEC3"
        },
        {
            "bufferView" : 2,
            "componentType" : 5126,
            "count" : 16,
            "type" : "VEC2"
        },
        {
            "bufferView" : 3,
            "componentType" : 5123,
            "count" : 54,
            "type" : "SCALAR"
        },
        {
            "bufferView" : 5,
            "componentType" : 5126,
            "count" : 48,
            "max" : [
                0.21469974517822266,
                0.4494856595993042,
                0.08221636712551117
            ],
            "min" : [
                -0.17335957288742065,
                3.2149696949090867e-07,
                -0.08221586048603058
            ],
            "type" : "VEC3"
        },
        {
            "bufferView" : 6,
            "componentType" : 5126,
            "count" : 48,
            "type" : "VEC3"
        },
        {
            "bufferView" : 7,
            "componentType" : 5126,
            "count" : 48,
            "type" : "VEC2"
        },
        {
            "bufferView" : 8,
            "componentType" : 5123,
            "count" : 276,
            "type" : "SCALAR"
        },
        {
            "bufferView" : 9,
            "componentType" : 5126,
            "count" : 16,
            "max" : [
                0.19436122477054596,
                0.4390440881252289,
                0.059891704469919205
            ],
            "min" : [
                -0.15700072050094604,
                0.010441900230944157,
                -0.059914905577898026
            ],
            "type" : "VEC3"
        },
        {
            "bufferView" : 10,
            "componentType" : 5126,
            "count" : 16,
            "type" : "VEC3"
        },
        {
            "bufferView" : 11,
            "componentType" : 5126,
            "count" : 16,
            "type" : "VEC2"
        },
        {
            "bufferView" : 12,
            "componentType" : 5126,
            "count" : 48,
            "max" : [
                0.21469974517822266,
                0.4494856595993042,
                0.08221636712551117
            ],
            "min" : [
                -0.17335957288742065,
                3.2149696949090867e-07,
                -0.08221586048603058
            ],
            "type" : "VEC3"
        },
        {
            "bufferView" : 13,
            "componentType" : 5126,
            "count" : 48,
            "type" : "VEC3"
        },
        {
            "bufferView" : 14,
            "componentType" : 5126,
            "count" : 48,
            "type" : "VEC2"
        },
        {
            "bufferView" : 15,
            "componentType" : 5126,
            "count" : 16,
            "max" : [
                0.19436122477054596,
                0.4390440881252289,
                0.059891704469919205
            ],
            "min" : [
                -0.15700072050094604,
                0.010441900230944157,
                -0.059914905577898026
            ],
            "type" : "VEC3"
        },
        {
            "bufferView" : 16,
            "componentType" : 5126,
            "count" : 16,
            "type" : "VEC3"
        },
        {
            "bufferView" : 17,
            "componentType" : 5126,
            "count" : 16,
            "type" : "VEC2"
        },
        {
            "bufferView" : 18,
            "componentType" : 5126,
            "count" : 48,
            "max" : [
                0.21469974517822266,
                0.4494856595993042,
                0.08221636712551117
            ],
            "min" : [
                -0.17335957288742065,
                3.2149696949090867e-07,
                -0.08221586048603058
            ],
            "type" : "VEC3"
        },
        {
            "bufferView" : 19,
            "componentType" : 5126,
            "count" : 48,
            "type" : "VEC3"
        },
        {
            "bufferView" : 20,
            "componentType" : 5126,
            "count" : 48,
            "type" : "VEC2"
        },
        {
            "bufferView" : 21,
            "componentType" : 5126,
            "count" : 16,
            "max" : [
                0.19436122477054596,
                0.4390440881252289,
                0.059891704469919205
            ],
            "min" : [
                -0.15700072050094604,
                0.010441900230944157,
                -0.059914905577898026
            ],
            "type" : "VEC3"
        },
        {
            "bufferView" : 22,
            "componentType" : 5126,
            "count" : 16,
            "type" : "VEC3"
        },
        {
            "bufferView" : 23,
            "componentType" : 5126,
            "count" : 16,
            "type" : "VEC2"
        },
        {
            "bufferView" : 24,
            "componentType" : 5126,
            "count" : 48,
            "max" : [
                0.21469974517822266,
                0.4494856595993042,
                0.08221636712551117
            ],
            "min" : [
                -0.17335957288742065,
                3.2149696949090867e-07,
                -0.08221586048603058
            ],
            "type" : "VEC3"
        },
        {
            "bufferView" : 25,
            "componentType" : 5126,
            "count" : 48,
            "type" : "VEC3"
        },
        {
            "bufferView" : 26,
            "componentType" : 5126,
            "count" : 48,
            "type" : "VEC2"
        }
    ],
    "bufferViews" : [
        {
            "buffer" : 0,
            "byteLength" : 192,
            "byteOffset" : 0
        },
        {
            "buffer" : 0,
            "byteLength" : 192,
            "byteOffset" : 192
        },
        {
            "buffer" : 0,
            "byteLength" : 128,
            "byteOffset" : 384
        },
        {
            "buffer" : 0,
            "byteLength" : 108,
            "byteOffset" : 512
        },
        {
            "buffer" : 0,
            "byteLength" : 1925,
            "byteOffset" : 620
        },
        {
            "buffer" : 0,
            "byteLength" : 576,
            "byteOffset" : 2548
        },
        {
            "buffer" : 0,
            "byteLength" : 576,
            "byteOffset" : 3124
        },
        {
            "buffer" : 0,
            "byteLength" : 384,
            "byteOffset" : 3700
        },
        {
            "buffer" : 0,
            "byteLength" : 552,
            "byteOffset" : 4084
        },
        {
            "buffer" : 0,
            "byteLength" : 192,
            "byteOffset" : 4636
        },
        {
            "buffer" : 0,
            "byteLength" : 192,
            "byteOffset" : 4828
        },
        {
            "buffer" : 0,
            "byteLength" : 128,
            "byteOffset" : 5020
        },
        {
            "buffer" : 0,
            "byteLength" : 576,
            "byteOffset" : 5148
        },
        {
            "buffer" : 0,
            "byteLength" : 576,
            "byteOffset" : 5724
        },
        {
            "buffer" : 0,
            "byteLength" : 384,
            "byteOffset" : 6300
        },
        {
            "buffer" : 0,
            "byteLength" : 192,
            "byteOffset" : 6684
        },
        {
            "buffer" : 0,
            "byteLength" : 192,
            "byteOffset" : 6876
        },
        {
            "buffer" : 0,
            "byteLength" : 128,
            "byteOffset" : 7068
        },
        {
            "buffer" : 0,
            "byteLength" : 576,
            "byteOffset" : 7196
        },
        {
            "buffer" : 0,
            "byteLength" : 576,
            "byteOffset" : 7772
        },
        {
            "buffer" : 0,
            "byteLength" : 384,
            "byteOffset" : 8348
        },
        {
            "buffer" : 0,
            "byteLength" : 192,
            "byteOffset" : 8732
        },
        {
            "buffer" : 0,
            "byteLength" : 192,
            "byteOffset" : 8924
        },
        {
            "buffer" : 0,
            "byteLength" : 128,
            "byteOffset" : 9116
        },
        {
            "buffer" : 0,
            "byteLength" : 576,
            "byteOffset" : 9244
        },
        {
            "buffer" : 0,
            "byteLength" : 576,
            "byteOffset" : 9820
        },
        {
            "buffer" : 0,
            "byteLength" : 384,
            "byteOffset" : 10396
        }
    ],
    "samplers" : [
        {
            "magFilter" : 9729,
            "minFilter" : 9987
        }
    ],
    "buffers" : [
        {
            "byteLength" : 10780,
            "uri" : "data:application/octet-stream;base64,"
        }
    ]
}
