{
    "asset" : {
        "generator" : "Khronos glTF Blender I/O v1.8.19",
        "version" : "2.0"
    },
    "scene" : 0,
    "scenes" : [
        {
            "name" : "Scene",
            "nodes" : [
                0
            ]
        }
    ],
    "nodes" : [
        {
            "mesh" : 0,
            "name" : "Candlestick_Triple"
        }
    ],
    "materials" : [
        {
            "doubleSided" : true,
            "name" : "Metal_Rusty",
            "pbrMetallicRoughness" : {
                "baseColorTexture" : {
                    "index" : 0
                },
                "metallicFactor" : 0.7812742590904236,
                "roughnessFactor" : 0.6334152221679688
            }
        },
        {
            "doubleSided" : true,
            "name" : "Wax_Candle",
            "pbrMetallicRoughness" : {
                "baseColorTexture" : {
                    "index" : 1
                },
                "metallicFactor" : 0,
                "roughnessFactor" : 0.7272727489471436
            }
        }
    ],
    "meshes" : [
        {
            "name" : "Candlestick_Triple",
            "primitives" : [
                {
                    "attributes" : {
                        "POSITION" : 0,
                        "NORMAL" : 1,
                        "TEXCOORD_0" : 2
                    },
                    "indices" : 3,
                    "material" : 0
                },
                {
                    "attributes" : {
                        "POSITION" : 4,
                        "NORMAL" : 5,
                        "TEXCOORD_0" : 6
                    },
                    "indices" : 7,
                    "material" : 1
                }
            ]
        }
    ],
    "textures" : [
        {
            "sampler" : 0,
            "source" : 0
        },
        {
            "sampler" : 0,
            "source" : 0
        }
    ],
    "images" : [
        {
            "bufferView" : 4,
            "mimeType" : "image/png",
            "name" : "MageRoomTexture"
        }
    ],
    "accessors" : [
        {
            "bufferView" : 0,
            "componentType" : 5126,
            "count" : 710,
            "max" : [
                0.3396335542201996,
                0.5890424847602844,
                0.14699511229991913
            ],
            "min" : [
                -0.3396340012550354,
                -8.49691943471953e-08,
                -0.14699499309062958
            ],
            "type" : "VEC3"
        },
        {
            "bufferView" : 1,
            "componentType" : 5126,
            "count" : 710,
            "type" : "VEC3"
        },
        {
            "bufferView" : 2,
            "componentType" : 5126,
            "count" : 710,
            "type" : "VEC2"
        },
        {
            "bufferView" : 3,
            "componentType" : 5123,
            "count" : 1038,
            "type" : "SCALAR"
        },
        {
            "bufferView" : 5,
            "componentType" : 5126,
            "count" : 456,
            "max" : [
                0.2975931763648987,
                0.6837171912193298,
                0.050410132855176926
            ],
            "min" : [
                -0.2975935935974121,
                0.3913617432117462,
                -0.05041041225194931
            ],
            "type" : "VEC3"
        },
        {
            "bufferView" : 6,
            "componentType" : 5126,
            "count" : 456,
            "type" : "VEC3"
        },
        {
            "bufferView" : 7,
            "componentType" : 5126,
            "count" : 456,
            "type" : "VEC2"
        },
        {
            "bufferView" : 8,
            "componentType" : 5123,
            "count" : 720,
            "type" : "SCALAR"
        }
    ],
    "bufferViews" : [
        {
            "buffer" : 0,
            "byteLength" : 8520,
            "byteOffset" : 0
        },
        {
            "buffer" : 0,
            "byteLength" : 8520,
            "byteOffset" : 8520
        },
        {
            "buffer" : 0,
            "byteLength" : 5680,
            "byteOffset" : 17040
        },
        {
            "buffer" : 0,
            "byteLength" : 2076,
            "byteOffset" : 22720
        },
        {
            "buffer" : 0,
            "byteLength" : 1925,
            "byteOffset" : 24796
        },
        {
            "buffer" : 0,
            "byteLength" : 5472,
            "byteOffset" : 26724
        },
        {
            "buffer" : 0,
            "byteLength" : 5472,
            "byteOffset" : 32196
        },
        {
            "buffer" : 0,
            "byteLength" : 3648,
            "byteOffset" : 37668
        },
        {
            "buffer" : 0,
            "byteLength" : 1440,
            "byteOffset" : 41316
        }
    ],
    "samplers" : [
        {
            "magFilter" : 9729,
            "minFilter" : 9987
        }
    ],
    "buffers" : [
        {
            "byteLength" : 42756,
            "uri" : "data:application/octet-stream;base64,"
        }
    ]
}
