{
    "asset" : {
        "generator" : "Khronos glTF Blender I/O v1.8.19",
        "version" : "2.0"
    },
    "scene" : 0,
    "scenes" : [
        {
            "name" : "Scene",
            "nodes" : [
                0,
                1
            ]
        }
    ],
    "nodes" : [
        {
            "mesh" : 0,
            "name" : "Chest_Lid",
            "translation" : [
                0.01591968536376953,
                0.4257832169532776,
                -0.3071446418762207
            ]
        },
        {
            "mesh" : 1,
            "name" : "Chest",
            "translation" : [
                0.01591968536376953,
                -0.025783196091651917,
                -0.05257463455200195
            ]
        }
    ],
    "materials" : [
        {
            "doubleSided" : true,
            "name" : "Wood_Basic",
            "pbrMetallicRoughness" : {
                "baseColorTexture" : {
                    "index" : 0
                },
                "metallicFactor" : 0,
                "roughnessFactor" : 0.9363636374473572
            }
        },
        {
            "doubleSided" : true,
            "name" : "Metal_Polished",
            "pbrMetallicRoughness" : {
                "baseColorTexture" : {
                    "index" : 1
                },
                "metallicFactor" : 0.5904762148857117,
                "roughnessFactor" : 0.31904762983322144
            }
        },
        {
            "doubleSided" : true,
            "name" : "Metal_Rusty",
            "pbrMetallicRoughness" : {
                "baseColorTexture" : {
                    "index" : 2
                },
                "metallicFactor" : 0.7812742590904236,
                "roughnessFactor" : 0.6334152221679688
            }
        }
    ],
    "meshes" : [
        {
            "name" : "Chest_Lid",
            "primitives" : [
                {
                    "attributes" : {
                        "POSITION" : 0,
                        "NORMAL" : 1,
                        "TEXCOORD_0" : 2
                    },
                    "indices" : 3,
                    "material" : 0
                },
                {
                    "attributes" : {
                        "POSITION" : 4,
                        "NORMAL" : 5,
                        "TEXCOORD_0" : 6
                    },
                    "indices" : 7,
                    "material" : 1
                }
            ]
        },
        {
            "name" : "Chest",
            "primitives" : [
                {
                    "attributes" : {
                        "POSITION" : 8,
                        "NORMAL" : 9,
                        "TEXCOORD_0" : 10
                    },
                    "indices" : 11,
                    "material" : 0
                },
                {
                    "attributes" : {
                        "POSITION" : 12,
                        "NORMAL" : 13,
                        "TEXCOORD_0" : 14
                    },
                    "indices" : 15,
                    "material" : 1
                },
                {
                    "attributes" : {
                        "POSITION" : 16,
                        "NORMAL" : 17,
                        "TEXCOORD_0" : 18
                    },
                    "indices" : 19,
                    "material" : 2
                }
            ]
        }
    ],
    "textures" : [
        {
            "sampler" : 0,
            "source" : 0
        },
        {
            "sampler" : 0,
            "source" : 0
        },
        {
            "sampler" : 0,
            "source" : 0
        }
    ],
    "images" : [
        {
            "bufferView" : 4,
            "mimeType" : "image/png",
            "name" : "MageRoomTexture"
        }
    ],
    "accessors" : [
        {
            "bufferView" : 0,
            "componentType" : 5126,
            "count" : 212,
            "max" : [
                0.47682857513427734,
                0.2318105399608612,
                0.5091389417648315
            ],
            "min" : [
                -0.4768288731575012,
                -5.960464477539063e-08,
                -1.2394501425205817e-08
            ],
            "type" : "VEC3"
        },
        {
            "bufferView" : 1,
            "componentType" : 5126,
            "count" : 212,
            "type" : "VEC3"
        },
        {
            "bufferView" : 2,
            "componentType" : 5126,
            "count" : 212,
            "type" : "VEC2"
        },
        {
            "bufferView" : 3,
            "componentType" : 5123,
            "count" : 324,
            "type" : "SCALAR"
        },
        {
            "bufferView" : 5,
            "componentType" : 5126,
            "count" : 464,
            "max" : [
                0.4793376326560974,
                0.24715201556682587,
                0.5386343002319336
            ],
            "min" : [
                -0.47826579213142395,
                -0.06289719045162201,
                -0.017089098691940308
            ],
            "type" : "VEC3"
        },
        {
            "bufferView" : 6,
            "componentType" : 5126,
            "count" : 464,
            "type" : "VEC3"
        },
        {
            "bufferView" : 7,
            "componentType" : 5126,
            "count" : 464,
            "type" : "VEC2"
        },
        {
            "bufferView" : 8,
            "componentType" : 5123,
            "count" : 696,
            "type" : "SCALAR"
        },
        {
            "bufferView" : 9,
            "componentType" : 5126,
            "count" : 120,
            "max" : [
                0.4762668013572693,
                0.4540230631828308,
                0.25456953048706055
            ],
            "min" : [
                -0.4762667417526245,
                -4.710576817501533e-08,
                -0.25456953048706055
            ],
            "type" : "VEC3"
        },
        {
            "bufferView" : 10,
            "componentType" : 5126,
            "count" : 120,
            "type" : "VEC3"
        },
        {
            "bufferView" : 11,
            "componentType" : 5126,
            "count" : 120,
            "type" : "VEC2"
        },
        {
            "bufferView" : 12,
            "componentType" : 5123,
            "count" : 180,
            "type" : "SCALAR"
        },
        {
            "bufferView" : 13,
            "componentType" : 5126,
            "count" : 365,
            "max" : [
                0.4902340769767761,
                0.46449539065361023,
                0.27840107679367065
            ],
            "min" : [
                -0.4902340769767761,
                -0.0015299469232559204,
                -0.29255351424217224
            ],
            "type" : "VEC3"
        },
        {
            "bufferView" : 14,
            "componentType" : 5126,
            "count" : 365,
            "type" : "VEC3"
        },
        {
            "bufferView" : 15,
            "componentType" : 5126,
            "count" : 365,
            "type" : "VEC2"
        },
        {
            "bufferView" : 16,
            "componentType" : 5123,
            "count" : 570,
            "type" : "SCALAR"
        },
        {
            "bufferView" : 17,
            "componentType" : 5126,
            "count" : 54,
            "max" : [
                0.006061928812414408,
                0.45347338914871216,
                0.3172741234302521
            ],
            "min" : [
                -0.006062406115233898,
                0.3974735736846924,
                0.26421546936035156
            ],
            "type" : "VEC3"
        },
        {
            "bufferView" : 18,
            "componentType" : 5126,
            "count" : 54,
            "type" : "VEC3"
        },
        {
            "bufferView" : 19,
            "componentType" : 5126,
            "count" : 54,
            "type" : "VEC2"
        },
        {
            "bufferView" : 20,
            "componentType" : 5123,
            "count" : 288,
            "type" : "SCALAR"
        }
    ],
    "bufferViews" : [
        {
            "buffer" : 0,
            "byteLength" : 2544,
            "byteOffset" : 0
        },
        {
            "buffer" : 0,
            "byteLength" : 2544,
            "byteOffset" : 2544
        },
        {
            "buffer" : 0,
            "byteLength" : 1696,
            "byteOffset" : 5088
        },
        {
            "buffer" : 0,
            "byteLength" : 648,
            "byteOffset" : 6784
        },
        {
            "buffer" : 0,
            "byteLength" : 1925,
            "byteOffset" : 7432
        },
        {
            "buffer" : 0,
            "byteLength" : 5568,
            "byteOffset" : 9360
        },
        {
            "buffer" : 0,
            "byteLength" : 5568,
            "byteOffset" : 14928
        },
        {
            "buffer" : 0,
            "byteLength" : 3712,
            "byteOffset" : 20496
        },
        {
            "buffer" : 0,
            "byteLength" : 1392,
            "byteOffset" : 24208
        },
        {
            "buffer" : 0,
            "byteLength" : 1440,
            "byteOffset" : 25600
        },
        {
            "buffer" : 0,
            "byteLength" : 1440,
            "byteOffset" : 27040
        },
        {
            "buffer" : 0,
            "byteLength" : 960,
            "byteOffset" : 28480
        },
        {
            "buffer" : 0,
            "byteLength" : 360,
            "byteOffset" : 29440
        },
        {
            "buffer" : 0,
            "byteLength" : 4380,
            "byteOffset" : 29800
        },
        {
            "buffer" : 0,
            "byteLength" : 4380,
            "byteOffset" : 34180
        },
        {
            "buffer" : 0,
            "byteLength" : 2920,
            "byteOffset" : 38560
        },
        {
            "buffer" : 0,
            "byteLength" : 1140,
            "byteOffset" : 41480
        },
        {
            "buffer" : 0,
            "byteLength" : 648,
            "byteOffset" : 42620
        },
        {
            "buffer" : 0,
            "byteLength" : 648,
            "byteOffset" : 43268
        },
        {
            "buffer" : 0,
            "byteLength" : 432,
            "byteOffset" : 43916
        },
        {
            "buffer" : 0,
            "byteLength" : 576,
            "byteOffset" : 44348
        }
    ],
    "samplers" : [
        {
            "magFilter" : 9729,
            "minFilter" : 9987
        }
    ],
    "buffers" : [
        {
            "byteLength" : 44924,
            "uri" : "data:application/octet-stream;base64,"
        }
    ]
}
