{
    "asset" : {
        "generator" : "Khronos glTF Blender I/O v1.8.19",
        "version" : "2.0"
    },
    "scene" : 0,
    "scenes" : [
        {
            "name" : "Scene",
            "nodes" : [
                0
            ]
        }
    ],
    "nodes" : [
        {
            "mesh" : 0,
            "name" : "Ivy_Branch"
        }
    ],
    "materials" : [
        {
            "doubleSided" : true,
            "name" : "Plants",
            "pbrMetallicRoughness" : {
                "baseColorTexture" : {
                    "index" : 0
                },
                "metallicFactor" : 0,
                "roughnessFactor" : 0.9363636374473572
            }
        }
    ],
    "meshes" : [
        {
            "name" : "Ivy_Branch",
            "primitives" : [
                {
                    "attributes" : {
                        "POSITION" : 0,
                        "NORMAL" : 1,
                        "TEXCOORD_0" : 2
                    },
                    "indices" : 3,
                    "material" : 0
                }
            ]
        }
    ],
    "textures" : [
        {
            "sampler" : 0,
            "source" : 0
        }
    ],
    "images" : [
        {
            "bufferView" : 4,
            "mimeType" : "image/png",
            "name" : "MageRoomTexture"
        }
    ],
    "accessors" : [
        {
            "bufferView" : 0,
            "componentType" : 5126,
            "count" : 1592,
            "max" : [
                0.16260331869125366,
                0.06487566232681274,
                0.0029462636448442936
            ],
            "min" : [
                -0.18051019310951233,
                -0.015341248363256454,
                -0.6259993314743042
            ],
            "type" : "VEC3"
        },
        {
            "bufferView" : 1,
            "componentType" : 5126,
            "count" : 1592,
            "type" : "VEC3"
        },
        {
            "bufferView" : 2,
            "componentType" : 5126,
            "count" : 1592,
            "type" : "VEC2"
        },
        {
            "bufferView" : 3,
            "componentType" : 5123,
            "count" : 2388,
            "type" : "SCALAR"
        }
    ],
    "bufferViews" : [
        {
            "buffer" : 0,
            "byteLength" : 19104,
            "byteOffset" : 0
        },
        {
            "buffer" : 0,
            "byteLength" : 19104,
            "byteOffset" : 19104
        },
        {
            "buffer" : 0,
            "byteLength" : 12736,
            "byteOffset" : 38208
        },
        {
            "buffer" : 0,
            "byteLength" : 4776,
            "byteOffset" : 50944
        },
        {
            "buffer" : 0,
            "byteLength" : 1925,
            "byteOffset" : 55720
        }
    ],
    "samplers" : [
        {
            "magFilter" : 9729,
            "minFilter" : 9987
        }
    ],
    "buffers" : [
        {
            "byteLength" : 57648,
            "uri" : "data:application/octet-stream;base64,"
        }
    ]
}
