{
    "asset" : {
        "generator" : "Khronos glTF Blender I/O v1.8.19",
        "version" : "2.0"
    },
    "scene" : 0,
    "scenes" : [
        {
            "name" : "Scene",
            "nodes" : [
                0
            ]
        }
    ],
    "nodes" : [
        {
            "mesh" : 0,
            "name" : "Jug"
        }
    ],
    "materials" : [
        {
            "doubleSided" : true,
            "name" : "Wood_Polished",
            "pbrMetallicRoughness" : {
                "baseColorTexture" : {
                    "index" : 0
                },
                "metallicFactor" : 0,
                "roughnessFactor" : 0.305525541305542
            }
        }
    ],
    "meshes" : [
        {
            "name" : "Bottle.001",
            "primitives" : [
                {
                    "attributes" : {
                        "POSITION" : 0,
                        "NORMAL" : 1,
                        "TEXCOORD_0" : 2
                    },
                    "indices" : 3,
                    "material" : 0
                }
            ]
        }
    ],
    "textures" : [
        {
            "sampler" : 0,
            "source" : 0
        }
    ],
    "images" : [
        {
            "bufferView" : 4,
            "mimeType" : "image/png",
            "name" : "MageRoomTexture"
        }
    ],
    "accessors" : [
        {
            "bufferView" : 0,
            "componentType" : 5126,
            "count" : 241,
            "max" : [
                0.16880913078784943,
                0.4879283905029297,
                0.18849308788776398
            ],
            "min" : [
                -0.16880913078784943,
                -0.0003912379906978458,
                -0.16880913078784943
            ],
            "type" : "VEC3"
        },
        {
            "bufferView" : 1,
            "componentType" : 5126,
            "count" : 241,
            "type" : "VEC3"
        },
        {
            "bufferView" : 2,
            "componentType" : 5126,
            "count" : 241,
            "type" : "VEC2"
        },
        {
            "bufferView" : 3,
            "componentType" : 5123,
            "count" : 1164,
            "type" : "SCALAR"
        }
    ],
    "bufferViews" : [
        {
            "buffer" : 0,
            "byteLength" : 2892,
            "byteOffset" : 0
        },
        {
            "buffer" : 0,
            "byteLength" : 2892,
            "byteOffset" : 2892
        },
        {
            "buffer" : 0,
            "byteLength" : 1928,
            "byteOffset" : 5784
        },
        {
            "buffer" : 0,
            "byteLength" : 2328,
            "byteOffset" : 7712
        },
        {
            "buffer" : 0,
            "byteLength" : 1925,
            "byteOffset" : 10040
        }
    ],
    "samplers" : [
        {
            "magFilter" : 9729,
            "minFilter" : 9987
        }
    ],
    "buffers" : [
        {
            "byteLength" : 11968,
            "uri" : "data:application/octet-stream;base64,"
        }
    ]
}
