{
    "asset" : {
        "generator" : "Khronos glTF Blender I/O v1.8.19",
        "version" : "2.0"
    },
    "scene" : 0,
    "scenes" : [
        {
            "name" : "Scene",
            "nodes" : [
                0
            ]
        }
    ],
    "nodes" : [
        {
            "mesh" : 0,
            "name" : "Lock"
        }
    ],
    "materials" : [
        {
            "doubleSided" : true,
            "name" : "Metal_Rusty",
            "pbrMetallicRoughness" : {
                "baseColorTexture" : {
                    "index" : 0
                },
                "metallicFactor" : 0.7812742590904236,
                "roughnessFactor" : 0.6334152221679688
            }
        }
    ],
    "meshes" : [
        {
            "name" : "Lock",
            "primitives" : [
                {
                    "attributes" : {
                        "POSITION" : 0,
                        "NORMAL" : 1,
                        "TEXCOORD_0" : 2
                    },
                    "indices" : 3,
                    "material" : 0
                }
            ]
        }
    ],
    "textures" : [
        {
            "sampler" : 0,
            "source" : 0
        }
    ],
    "images" : [
        {
            "bufferView" : 4,
            "mimeType" : "image/png",
            "name" : "MageRoomTexture"
        }
    ],
    "accessors" : [
        {
            "bufferView" : 0,
            "componentType" : 5126,
            "count" : 182,
            "max" : [
                0.05809256061911583,
                0.1278330236673355,
                0.013840025290846825
            ],
            "min" : [
                -0.05809256061911583,
                -0.06381618231534958,
                -0.031861063092947006
            ],
            "type" : "VEC3"
        },
        {
            "bufferView" : 1,
            "componentType" : 5126,
            "count" : 182,
            "type" : "VEC3"
        },
        {
            "bufferView" : 2,
            "componentType" : 5126,
            "count" : 182,
            "type" : "VEC2"
        },
        {
            "bufferView" : 3,
            "componentType" : 5123,
            "count" : 492,
            "type" : "SCALAR"
        }
    ],
    "bufferViews" : [
        {
            "buffer" : 0,
            "byteLength" : 2184,
            "byteOffset" : 0
        },
        {
            "buffer" : 0,
            "byteLength" : 2184,
            "byteOffset" : 2184
        },
        {
            "buffer" : 0,
            "byteLength" : 1456,
            "byteOffset" : 4368
        },
        {
            "buffer" : 0,
            "byteLength" : 984,
            "byteOffset" : 5824
        },
        {
            "buffer" : 0,
            "byteLength" : 1925,
            "byteOffset" : 6808
        }
    ],
    "samplers" : [
        {
            "magFilter" : 9729,
            "minFilter" : 9987
        }
    ],
    "buffers" : [
        {
            "byteLength" : 8736,
            "uri" : "data:application/octet-stream;base64,"
        }
    ]
}
