{
    "asset" : {
        "generator" : "Khronos glTF Blender I/O v1.8.19",
        "version" : "2.0"
    },
    "scene" : 0,
    "scenes" : [
        {
            "name" : "Scene",
            "nodes" : [
                0
            ]
        }
    ],
    "nodes" : [
        {
            "mesh" : 0,
            "name" : "Shield",
            "rotation" : [
                0.7010574340820312,
                -0.09229596704244614,
                -0.09229596704244614,
                0.7010574340820312
            ]
        }
    ],
    "materials" : [
        {
            "doubleSided" : true,
            "name" : "Metal_Rusty",
            "pbrMetallicRoughness" : {
                "baseColorTexture" : {
                    "index" : 0
                },
                "metallicFactor" : 0.7812742590904236,
                "roughnessFactor" : 0.6334152221679688
            }
        },
        {
            "doubleSided" : true,
            "name" : "Wood_Basic",
            "pbrMetallicRoughness" : {
                "baseColorTexture" : {
                    "index" : 1
                },
                "metallicFactor" : 0,
                "roughnessFactor" : 0.9363636374473572
            }
        }
    ],
    "meshes" : [
        {
            "name" : "Shield",
            "primitives" : [
                {
                    "attributes" : {
                        "POSITION" : 0,
                        "NORMAL" : 1,
                        "TEXCOORD_0" : 2
                    },
                    "indices" : 3,
                    "material" : 0
                },
                {
                    "attributes" : {
                        "POSITION" : 4,
                        "NORMAL" : 5,
                        "TEXCOORD_0" : 6
                    },
                    "indices" : 7,
                    "material" : 1
                }
            ]
        }
    ],
    "textures" : [
        {
            "sampler" : 0,
            "source" : 0
        },
        {
            "sampler" : 0,
            "source" : 0
        }
    ],
    "images" : [
        {
            "bufferView" : 4,
            "mimeType" : "image/png",
            "name" : "MageRoomTexture"
        }
    ],
    "accessors" : [
        {
            "bufferView" : 0,
            "componentType" : 5126,
            "count" : 403,
            "max" : [
                0.2768101394176483,
                0.1340460479259491,
                0.2768102288246155
            ],
            "min" : [
                -0.2768102288246155,
                -0.0530543215572834,
                -0.2768102288246155
            ],
            "type" : "VEC3"
        },
        {
            "bufferView" : 1,
            "componentType" : 5126,
            "count" : 403,
            "type" : "VEC3"
        },
        {
            "bufferView" : 2,
            "componentType" : 5126,
            "count" : 403,
            "type" : "VEC2"
        },
        {
            "bufferView" : 3,
            "componentType" : 5123,
            "count" : 732,
            "type" : "SCALAR"
        },
        {
            "bufferView" : 5,
            "componentType" : 5126,
            "count" : 235,
            "max" : [
                0.26415830850601196,
                0.06623037904500961,
                0.2655556797981262
            ],
            "min" : [
                -0.26415833830833435,
                -0.009557552635669708,
                -0.26667654514312744
            ],
            "type" : "VEC3"
        },
        {
            "bufferView" : 6,
            "componentType" : 5126,
            "count" : 235,
            "type" : "VEC3"
        },
        {
            "bufferView" : 7,
            "componentType" : 5126,
            "count" : 235,
            "type" : "VEC2"
        },
        {
            "bufferView" : 8,
            "componentType" : 5123,
            "count" : 555,
            "type" : "SCALAR"
        }
    ],
    "bufferViews" : [
        {
            "buffer" : 0,
            "byteLength" : 4836,
            "byteOffset" : 0
        },
        {
            "buffer" : 0,
            "byteLength" : 4836,
            "byteOffset" : 4836
        },
        {
            "buffer" : 0,
            "byteLength" : 3224,
            "byteOffset" : 9672
        },
        {
            "buffer" : 0,
            "byteLength" : 1464,
            "byteOffset" : 12896
        },
        {
            "buffer" : 0,
            "byteLength" : 1925,
            "byteOffset" : 14360
        },
        {
            "buffer" : 0,
            "byteLength" : 2820,
            "byteOffset" : 16288
        },
        {
            "buffer" : 0,
            "byteLength" : 2820,
            "byteOffset" : 19108
        },
        {
            "buffer" : 0,
            "byteLength" : 1880,
            "byteOffset" : 21928
        },
        {
            "buffer" : 0,
            "byteLength" : 1110,
            "byteOffset" : 23808
        }
    ],
    "samplers" : [
        {
            "magFilter" : 9729,
            "minFilter" : 9987
        }
    ],
    "buffers" : [
        {
            "byteLength" : 24920,
            "uri" : "data:application/octet-stream;base64,"
        }
    ]
}
