{
    "asset" : {
        "generator" : "Khronos glTF Blender I/O v1.8.19",
        "version" : "2.0"
    },
    "scene" : 0,
    "scenes" : [
        {
            "name" : "Scene",
            "nodes" : [
                0
            ]
        }
    ],
    "nodes" : [
        {
            "mesh" : 0,
            "name" : "Torch"
        }
    ],
    "materials" : [
        {
            "doubleSided" : true,
            "name" : "Wood_Basic",
            "pbrMetallicRoughness" : {
                "baseColorTexture" : {
                    "index" : 0
                },
                "metallicFactor" : 0,
                "roughnessFactor" : 0.9363636374473572
            }
        },
        {
            "doubleSided" : true,
            "name" : "Ember",
            "pbrMetallicRoughness" : {
                "baseColorTexture" : {
                    "index" : 1
                },
                "metallicFactor" : 0,
                "roughnessFactor" : 0.5
            }
        }
    ],
    "meshes" : [
        {
            "name" : "Torch",
            "primitives" : [
                {
                    "attributes" : {
                        "POSITION" : 0,
                        "NORMAL" : 1,
                        "TEXCOORD_0" : 2
                    },
                    "indices" : 3,
                    "material" : 0
                },
                {
                    "attributes" : {
                        "POSITION" : 4,
                        "NORMAL" : 5,
                        "TEXCOORD_0" : 6
                    },
                    "indices" : 7,
                    "material" : 1
                }
            ]
        }
    ],
    "textures" : [
        {
            "sampler" : 0,
            "source" : 0
        },
        {
            "sampler" : 0,
            "source" : 0
        }
    ],
    "images" : [
        {
            "bufferView" : 4,
            "mimeType" : "image/png",
            "name" : "MageRoomTexture"
        }
    ],
    "accessors" : [
        {
            "bufferView" : 0,
            "componentType" : 5126,
            "count" : 302,
            "max" : [
                0.045761074870824814,
                0.4412647783756256,
                0.05284027382731438
            ],
            "min" : [
                -0.04576097056269646,
                -0.3746759295463562,
                -0.05284027382731438
            ],
            "type" : "VEC3"
        },
        {
            "bufferView" : 1,
            "componentType" : 5126,
            "count" : 302,
            "type" : "VEC3"
        },
        {
            "bufferView" : 2,
            "componentType" : 5126,
            "count" : 302,
            "type" : "VEC2"
        },
        {
            "bufferView" : 3,
            "componentType" : 5123,
            "count" : 486,
            "type" : "SCALAR"
        },
        {
            "bufferView" : 5,
            "componentType" : 5126,
            "count" : 82,
            "max" : [
                0.045761074870824814,
                0.4372122883796692,
                0.052115827798843384
            ],
            "min" : [
                -0.04576097056269646,
                0.3448849022388458,
                -0.05284027382731438
            ],
            "type" : "VEC3"
        },
        {
            "bufferView" : 6,
            "componentType" : 5126,
            "count" : 82,
            "type" : "VEC3"
        },
        {
            "bufferView" : 7,
            "componentType" : 5126,
            "count" : 82,
            "type" : "VEC2"
        },
        {
            "bufferView" : 8,
            "componentType" : 5123,
            "count" : 90,
            "type" : "SCALAR"
        }
    ],
    "bufferViews" : [
        {
            "buffer" : 0,
            "byteLength" : 3624,
            "byteOffset" : 0
        },
        {
            "buffer" : 0,
            "byteLength" : 3624,
            "byteOffset" : 3624
        },
        {
            "buffer" : 0,
            "byteLength" : 2416,
            "byteOffset" : 7248
        },
        {
            "buffer" : 0,
            "byteLength" : 972,
            "byteOffset" : 9664
        },
        {
            "buffer" : 0,
            "byteLength" : 1925,
            "byteOffset" : 10636
        },
        {
            "buffer" : 0,
            "byteLength" : 984,
            "byteOffset" : 12564
        },
        {
            "buffer" : 0,
            "byteLength" : 984,
            "byteOffset" : 13548
        },
        {
            "buffer" : 0,
            "byteLength" : 656,
            "byteOffset" : 14532
        },
        {
            "buffer" : 0,
            "byteLength" : 180,
            "byteOffset" : 15188
        }
    ],
    "samplers" : [
        {
            "magFilter" : 9729,
            "minFilter" : 9987
        }
    ],
    "buffers" : [
        {
            "byteLength" : 15368,
            "uri" : "data:application/octet-stream;base64,"
        }
    ]
}
