{
    "asset" : {
        "generator" : "Khronos glTF Blender I/O v1.8.19",
        "version" : "2.0"
    },
    "scene" : 0,
    "scenes" : [
        {
            "name" : "Scene",
            "nodes" : [
                0
            ]
        }
    ],
    "nodes" : [
        {
            "mesh" : 0,
            "name" : "Tree_Branch"
        }
    ],
    "materials" : [
        {
            "doubleSided" : true,
            "name" : "Plants",
            "pbrMetallicRoughness" : {
                "baseColorTexture" : {
                    "index" : 0
                },
                "metallicFactor" : 0,
                "roughnessFactor" : 0.9363636374473572
            }
        }
    ],
    "meshes" : [
        {
            "name" : "Tree_Branch",
            "primitives" : [
                {
                    "attributes" : {
                        "POSITION" : 0,
                        "NORMAL" : 1,
                        "TEXCOORD_0" : 2
                    },
                    "indices" : 3,
                    "material" : 0
                }
            ]
        }
    ],
    "textures" : [
        {
            "sampler" : 0,
            "source" : 0
        }
    ],
    "images" : [
        {
            "bufferView" : 4,
            "mimeType" : "image/png",
            "name" : "MageRoomTexture"
        }
    ],
    "accessors" : [
        {
            "bufferView" : 0,
            "componentType" : 5126,
            "count" : 2020,
            "max" : [
                0.16541148722171783,
                0.09367194771766663,
                0.000298338127322495
            ],
            "min" : [
                -0.22303852438926697,
                -0.08899049460887909,
                -0.6802915334701538
            ],
            "type" : "VEC3"
        },
        {
            "bufferView" : 1,
            "componentType" : 5126,
            "count" : 2020,
            "type" : "VEC3"
        },
        {
            "bufferView" : 2,
            "componentType" : 5126,
            "count" : 2020,
            "type" : "VEC2"
        },
        {
            "bufferView" : 3,
            "componentType" : 5123,
            "count" : 3006,
            "type" : "SCALAR"
        }
    ],
    "bufferViews" : [
        {
            "buffer" : 0,
            "byteLength" : 24240,
            "byteOffset" : 0
        },
        {
            "buffer" : 0,
            "byteLength" : 24240,
            "byteOffset" : 24240
        },
        {
            "buffer" : 0,
            "byteLength" : 16160,
            "byteOffset" : 48480
        },
        {
            "buffer" : 0,
            "byteLength" : 6012,
            "byteOffset" : 64640
        },
        {
            "buffer" : 0,
            "byteLength" : 1925,
            "byteOffset" : 70652
        }
    ],
    "samplers" : [
        {
            "magFilter" : 9729,
            "minFilter" : 9987
        }
    ],
    "buffers" : [
        {
            "byteLength" : 72580,
            "uri" : "data:application/octet-stream;base64,"
        }
    ]
}
