{
    "asset" : {
        "generator" : "Khronos glTF Blender I/O v1.8.19",
        "version" : "2.0"
    },
    "scene" : 0,
    "scenes" : [
        {
            "name" : "Scene",
            "nodes" : [
                0
            ]
        }
    ],
    "nodes" : [
        {
            "mesh" : 0,
            "name" : "Jail_Wall"
        }
    ],
    "materials" : [
        {
            "doubleSided" : true,
            "name" : "Metal_Rusty",
            "pbrMetallicRoughness" : {
                "baseColorTexture" : {
                    "index" : 0
                },
                "metallicFactor" : 0.7812742590904236,
                "roughnessFactor" : 0.6334152221679688
            }
        }
    ],
    "meshes" : [
        {
            "name" : "Jail_Wall",
            "primitives" : [
                {
                    "attributes" : {
                        "POSITION" : 0,
                        "NORMAL" : 1,
                        "TEXCOORD_0" : 2
                    },
                    "indices" : 3,
                    "material" : 0
                }
            ]
        }
    ],
    "textures" : [
        {
            "sampler" : 0,
            "source" : 0
        }
    ],
    "images" : [
        {
            "bufferView" : 4,
            "mimeType" : "image/png",
            "name" : "MageRoomTexture"
        }
    ],
    "accessors" : [
        {
            "bufferView" : 0,
            "componentType" : 5126,
            "count" : 1628,
            "max" : [
                2.000001907348633,
                3.1317906379699707,
                0.08653172105550766
            ],
            "min" : [
                -2.0000009536743164,
                -0.04331212863326073,
                -0.08000017702579498
            ],
            "type" : "VEC3"
        },
        {
            "bufferView" : 1,
            "componentType" : 5126,
            "count" : 1628,
            "type" : "VEC3"
        },
        {
            "bufferView" : 2,
            "componentType" : 5126,
            "count" : 1628,
            "type" : "VEC2"
        },
        {
            "bufferView" : 3,
            "componentType" : 5123,
            "count" : 2442,
            "type" : "SCALAR"
        }
    ],
    "bufferViews" : [
        {
            "buffer" : 0,
            "byteLength" : 19536,
            "byteOffset" : 0
        },
        {
            "buffer" : 0,
            "byteLength" : 19536,
            "byteOffset" : 19536
        },
        {
            "buffer" : 0,
            "byteLength" : 13024,
            "byteOffset" : 39072
        },
        {
            "buffer" : 0,
            "byteLength" : 4884,
            "byteOffset" : 52096
        },
        {
            "buffer" : 0,
            "byteLength" : 1925,
            "byteOffset" : 56980
        }
    ],
    "samplers" : [
        {
            "magFilter" : 9729,
            "minFilter" : 9987
        }
    ],
    "buffers" : [
        {
            "byteLength" : 58908,
            "uri" : "data:application/octet-stream;base64,"
        }
    ]
}
