{
    "asset" : {
        "generator" : "Khronos glTF Blender I/O v1.8.19",
        "version" : "2.0"
    },
    "scene" : 0,
    "scenes" : [
        {
            "name" : "Scene",
            "nodes" : [
                0
            ]
        }
    ],
    "nodes" : [
        {
            "mesh" : 0,
            "name" : "Pillar"
        }
    ],
    "materials" : [
        {
            "doubleSided" : true,
            "name" : "Stone_Wall.001",
            "pbrMetallicRoughness" : {
                "baseColorTexture" : {
                    "index" : 0
                },
                "metallicFactor" : 0
            }
        }
    ],
    "meshes" : [
        {
            "name" : "Pillar",
            "primitives" : [
                {
                    "attributes" : {
                        "POSITION" : 0,
                        "NORMAL" : 1,
                        "TEXCOORD_0" : 2
                    },
                    "indices" : 3,
                    "material" : 0
                }
            ]
        }
    ],
    "textures" : [
        {
            "sampler" : 0,
            "source" : 0
        }
    ],
    "images" : [
        {
            "bufferView" : 4,
            "mimeType" : "image/png",
            "name" : "MageRoomTexture"
        }
    ],
    "accessors" : [
        {
            "bufferView" : 0,
            "componentType" : 5126,
            "count" : 1056,
            "max" : [
                0.4050533175468445,
                4.985424995422363,
                0.4050533175468445
            ],
            "min" : [
                -0.4050533175468445,
                -0.23190446197986603,
                -0.4050533175468445
            ],
            "type" : "VEC3"
        },
        {
            "bufferView" : 1,
            "componentType" : 5126,
            "count" : 1056,
            "type" : "VEC3"
        },
        {
            "bufferView" : 2,
            "componentType" : 5126,
            "count" : 1056,
            "type" : "VEC2"
        },
        {
            "bufferView" : 3,
            "componentType" : 5123,
            "count" : 1620,
            "type" : "SCALAR"
        }
    ],
    "bufferViews" : [
        {
            "buffer" : 0,
            "byteLength" : 12672,
            "byteOffset" : 0
        },
        {
            "buffer" : 0,
            "byteLength" : 12672,
            "byteOffset" : 12672
        },
        {
            "buffer" : 0,
            "byteLength" : 8448,
            "byteOffset" : 25344
        },
        {
            "buffer" : 0,
            "byteLength" : 3240,
            "byteOffset" : 33792
        },
        {
            "buffer" : 0,
            "byteLength" : 1925,
            "byteOffset" : 37032
        }
    ],
    "samplers" : [
        {
            "magFilter" : 9729,
            "minFilter" : 9987
        }
    ],
    "buffers" : [
        {
            "byteLength" : 38960,
            "uri" : "data:application/octet-stream;base64,"
        }
    ]
}
