{
    "asset" : {
        "generator" : "Khronos glTF Blender I/O v1.8.19",
        "version" : "2.0"
    },
    "scene" : 0,
    "scenes" : [
        {
            "name" : "Scene",
            "nodes" : [
                0
            ]
        }
    ],
    "nodes" : [
        {
            "mesh" : 0,
            "name" : "FloorTIle"
        }
    ],
    "materials" : [
        {
            "doubleSided" : true,
            "name" : "Stone_Floor",
            "pbrMetallicRoughness" : {
                "baseColorTexture" : {
                    "index" : 0
                },
                "metallicFactor" : 0,
                "roughnessFactor" : 0.8454545736312866
            }
        }
    ],
    "meshes" : [
        {
            "name" : "Stairs_Platform.002",
            "primitives" : [
                {
                    "attributes" : {
                        "POSITION" : 0,
                        "NORMAL" : 1,
                        "TEXCOORD_0" : 2
                    },
                    "indices" : 3,
                    "material" : 0
                }
            ]
        }
    ],
    "textures" : [
        {
            "sampler" : 0,
            "source" : 0
        }
    ],
    "images" : [
        {
            "bufferView" : 4,
            "mimeType" : "image/png",
            "name" : "MageRoomTexture"
        }
    ],
    "accessors" : [
        {
            "bufferView" : 0,
            "componentType" : 5126,
            "count" : 3903,
            "max" : [
                2.0000014305114746,
                0.011928558349609375,
                2.000000238418579
            ],
            "min" : [
                -1.999999761581421,
                -0.13194918632507324,
                -2.000000238418579
            ],
            "type" : "VEC3"
        },
        {
            "bufferView" : 1,
            "componentType" : 5126,
            "count" : 3903,
            "type" : "VEC3"
        },
        {
            "bufferView" : 2,
            "componentType" : 5126,
            "count" : 3903,
            "type" : "VEC2"
        },
        {
            "bufferView" : 3,
            "componentType" : 5123,
            "count" : 5571,
            "type" : "SCALAR"
        }
    ],
    "bufferViews" : [
        {
            "buffer" : 0,
            "byteLength" : 46836,
            "byteOffset" : 0
        },
        {
            "buffer" : 0,
            "byteLength" : 46836,
            "byteOffset" : 46836
        },
        {
            "buffer" : 0,
            "byteLength" : 31224,
            "byteOffset" : 93672
        },
        {
            "buffer" : 0,
            "byteLength" : 11142,
            "byteOffset" : 124896
        },
        {
            "buffer" : 0,
            "byteLength" : 1925,
            "byteOffset" : 136040
        }
    ],
    "samplers" : [
        {
            "magFilter" : 9729,
            "minFilter" : 9987
        }
    ],
    "buffers" : [
        {
            "byteLength" : 137968,
            "uri" : "data:application/octet-stream;base64,"
        }
    ]
}
