{
    "asset" : {
        "generator" : "Khronos glTF Blender I/O v1.8.19",
        "version" : "2.0"
    },
    "scene" : 0,
    "scenes" : [
        {
            "name" : "Scene",
            "nodes" : [
                0
            ]
        }
    ],
    "nodes" : [
        {
            "mesh" : 0,
            "name" : "Dungeon_Big_to_Custom",
            "translation" : [
                0,
                0,
                3.61419939994812
            ]
        }
    ],
    "materials" : [
        {
            "doubleSided" : true,
            "name" : "Stone_Wall.001",
            "pbrMetallicRoughness" : {
                "baseColorTexture" : {
                    "index" : 0
                },
                "metallicFactor" : 0
            }
        }
    ],
    "meshes" : [
        {
            "name" : "Dungeon_Big_to_Custom",
            "primitives" : [
                {
                    "attributes" : {
                        "POSITION" : 0,
                        "NORMAL" : 1,
                        "TEXCOORD_0" : 2
                    },
                    "indices" : 3,
                    "material" : 0
                }
            ]
        }
    ],
    "textures" : [
        {
            "sampler" : 0,
            "source" : 0
        }
    ],
    "images" : [
        {
            "bufferView" : 4,
            "mimeType" : "image/png",
            "name" : "MageRoomTexture"
        }
    ],
    "accessors" : [
        {
            "bufferView" : 0,
            "componentType" : 5126,
            "count" : 2165,
            "max" : [
                3.9999876022338867,
                4.982719898223877,
                -3.7281289100646973
            ],
            "min" : [
                -4.184484481811523,
                -0.20000004768371582,
                -4.050346374511719
            ],
            "type" : "VEC3"
        },
        {
            "bufferView" : 1,
            "componentType" : 5126,
            "count" : 2165,
            "type" : "VEC3"
        },
        {
            "bufferView" : 2,
            "componentType" : 5126,
            "count" : 2165,
            "type" : "VEC2"
        },
        {
            "bufferView" : 3,
            "componentType" : 5123,
            "count" : 3363,
            "type" : "SCALAR"
        }
    ],
    "bufferViews" : [
        {
            "buffer" : 0,
            "byteLength" : 25980,
            "byteOffset" : 0
        },
        {
            "buffer" : 0,
            "byteLength" : 25980,
            "byteOffset" : 25980
        },
        {
            "buffer" : 0,
            "byteLength" : 17320,
            "byteOffset" : 51960
        },
        {
            "buffer" : 0,
            "byteLength" : 6726,
            "byteOffset" : 69280
        },
        {
            "buffer" : 0,
            "byteLength" : 1925,
            "byteOffset" : 76008
        }
    ],
    "samplers" : [
        {
            "magFilter" : 9729,
            "minFilter" : 9987
        }
    ],
    "buffers" : [
        {
            "byteLength" : 77936,
            "uri" : "data:application/octet-stream;base64,"
        }
    ]
}
