{
    "asset" : {
        "generator" : "Khronos glTF Blender I/O v1.8.19",
        "version" : "2.0"
    },
    "scene" : 0,
    "scenes" : [
        {
            "name" : "Scene",
            "nodes" : [
                0
            ]
        }
    ],
    "nodes" : [
        {
            "mesh" : 0,
            "name" : "Stairs_Low",
            "rotation" : [
                0,
                0.7071067690849304,
                0,
                0.7071068286895752
            ]
        }
    ],
    "materials" : [
        {
            "doubleSided" : true,
            "name" : "Stone_Wall",
            "pbrMetallicRoughness" : {
                "baseColorTexture" : {
                    "index" : 0
                },
                "metallicFactor" : 0
            }
        },
        {
            "doubleSided" : true,
            "name" : "Stone_Floor",
            "pbrMetallicRoughness" : {
                "baseColorTexture" : {
                    "index" : 1
                },
                "metallicFactor" : 0,
                "roughnessFactor" : 0.8454545736312866
            }
        }
    ],
    "meshes" : [
        {
            "name" : "Cube.973",
            "primitives" : [
                {
                    "attributes" : {
                        "POSITION" : 0,
                        "NORMAL" : 1,
                        "TEXCOORD_0" : 2
                    },
                    "indices" : 3,
                    "material" : 0
                },
                {
                    "attributes" : {
                        "POSITION" : 4,
                        "NORMAL" : 5,
                        "TEXCOORD_0" : 6
                    },
                    "indices" : 7,
                    "material" : 1
                }
            ]
        }
    ],
    "textures" : [
        {
            "sampler" : 0,
            "source" : 0
        },
        {
            "sampler" : 0,
            "source" : 0
        }
    ],
    "images" : [
        {
            "bufferView" : 4,
            "mimeType" : "image/png",
            "name" : "MageRoomTexture"
        }
    ],
    "accessors" : [
        {
            "bufferView" : 0,
            "componentType" : 5126,
            "count" : 703,
            "max" : [
                2.0000076293945312,
                2.482719659805298,
                2.0829010009765625
            ],
            "min" : [
                -1.9999923706054688,
                -0.1296067237854004,
                -2.0962696075439453
            ],
            "type" : "VEC3"
        },
        {
            "bufferView" : 1,
            "componentType" : 5126,
            "count" : 703,
            "type" : "VEC3"
        },
        {
            "bufferView" : 2,
            "componentType" : 5126,
            "count" : 703,
            "type" : "VEC2"
        },
        {
            "bufferView" : 3,
            "componentType" : 5123,
            "count" : 1122,
            "type" : "SCALAR"
        },
        {
            "bufferView" : 5,
            "componentType" : 5126,
            "count" : 1938,
            "max" : [
                2.0473780632019043,
                2.525681972503662,
                1.991597056388855
            ],
            "min" : [
                -2.0589210987091064,
                -0.1296067237854004,
                -1.988926649093628
            ],
            "type" : "VEC3"
        },
        {
            "bufferView" : 6,
            "componentType" : 5126,
            "count" : 1938,
            "type" : "VEC3"
        },
        {
            "bufferView" : 7,
            "componentType" : 5126,
            "count" : 1938,
            "type" : "VEC2"
        },
        {
            "bufferView" : 8,
            "componentType" : 5123,
            "count" : 3012,
            "type" : "SCALAR"
        }
    ],
    "bufferViews" : [
        {
            "buffer" : 0,
            "byteLength" : 8436,
            "byteOffset" : 0
        },
        {
            "buffer" : 0,
            "byteLength" : 8436,
            "byteOffset" : 8436
        },
        {
            "buffer" : 0,
            "byteLength" : 5624,
            "byteOffset" : 16872
        },
        {
            "buffer" : 0,
            "byteLength" : 2244,
            "byteOffset" : 22496
        },
        {
            "buffer" : 0,
            "byteLength" : 1925,
            "byteOffset" : 24740
        },
        {
            "buffer" : 0,
            "byteLength" : 23256,
            "byteOffset" : 26668
        },
        {
            "buffer" : 0,
            "byteLength" : 23256,
            "byteOffset" : 49924
        },
        {
            "buffer" : 0,
            "byteLength" : 15504,
            "byteOffset" : 73180
        },
        {
            "buffer" : 0,
            "byteLength" : 6024,
            "byteOffset" : 88684
        }
    ],
    "samplers" : [
        {
            "magFilter" : 9729,
            "minFilter" : 9987
        }
    ],
    "buffers" : [
        {
            "byteLength" : 94708,
            "uri" : "data:application/octet-stream;base64,"
        }
    ]
}
