{
    "asset" : {
        "generator" : "Khronos glTF Blender I/O v1.8.19",
        "version" : "2.0"
    },
    "scene" : 0,
    "scenes" : [
        {
            "name" : "Scene",
            "nodes" : [
                0
            ]
        }
    ],
    "nodes" : [
        {
            "mesh" : 0,
            "name" : "Dungeon_Big_Passage"
        }
    ],
    "materials" : [
        {
            "doubleSided" : true,
            "name" : "Stone_Wall.001",
            "pbrMetallicRoughness" : {
                "baseColorTexture" : {
                    "index" : 0
                },
                "metallicFactor" : 0
            }
        }
    ],
    "meshes" : [
        {
            "name" : "Dungeon_Big_Passage",
            "primitives" : [
                {
                    "attributes" : {
                        "POSITION" : 0,
                        "NORMAL" : 1,
                        "TEXCOORD_0" : 2
                    },
                    "indices" : 3,
                    "material" : 0
                }
            ]
        }
    ],
    "textures" : [
        {
            "sampler" : 0,
            "source" : 0
        }
    ],
    "images" : [
        {
            "bufferView" : 4,
            "mimeType" : "image/png",
            "name" : "MageRoomTexture"
        }
    ],
    "accessors" : [
        {
            "bufferView" : 0,
            "componentType" : 5126,
            "count" : 4518,
            "max" : [
                3.9999990463256836,
                4.982719898223877,
                0.30055153369903564
            ],
            "min" : [
                -3.999999761581421,
                -0.20000028610229492,
                -0.3005514144897461
            ],
            "type" : "VEC3"
        },
        {
            "bufferView" : 1,
            "componentType" : 5126,
            "count" : 4518,
            "type" : "VEC3"
        },
        {
            "bufferView" : 2,
            "componentType" : 5126,
            "count" : 4518,
            "type" : "VEC2"
        },
        {
            "bufferView" : 3,
            "componentType" : 5123,
            "count" : 7182,
            "type" : "SCALAR"
        }
    ],
    "bufferViews" : [
        {
            "buffer" : 0,
            "byteLength" : 54216,
            "byteOffset" : 0
        },
        {
            "buffer" : 0,
            "byteLength" : 54216,
            "byteOffset" : 54216
        },
        {
            "buffer" : 0,
            "byteLength" : 36144,
            "byteOffset" : 108432
        },
        {
            "buffer" : 0,
            "byteLength" : 14364,
            "byteOffset" : 144576
        },
        {
            "buffer" : 0,
            "byteLength" : 1925,
            "byteOffset" : 158940
        }
    ],
    "samplers" : [
        {
            "magFilter" : 9729,
            "minFilter" : 9987
        }
    ],
    "buffers" : [
        {
            "byteLength" : 160868,
            "uri" : "data:application/octet-stream;base64,"
        }
    ]
}
