{
    "asset" : {
        "generator" : "Khronos glTF Blender I/O v1.8.19",
        "version" : "2.0"
    },
    "scene" : 0,
    "scenes" : [
        {
            "name" : "Scene",
            "nodes" : [
                0
            ]
        }
    ],
    "nodes" : [
        {
            "mesh" : 0,
            "name" : "Stairs_High"
        }
    ],
    "materials" : [
        {
            "doubleSided" : true,
            "name" : "Stone_Wall",
            "pbrMetallicRoughness" : {
                "baseColorTexture" : {
                    "index" : 0
                },
                "metallicFactor" : 0
            }
        },
        {
            "doubleSided" : true,
            "name" : "Stone_Floor",
            "pbrMetallicRoughness" : {
                "baseColorTexture" : {
                    "index" : 1
                },
                "metallicFactor" : 0,
                "roughnessFactor" : 0.8454545736312866
            }
        }
    ],
    "meshes" : [
        {
            "name" : "Stairs_High",
            "primitives" : [
                {
                    "attributes" : {
                        "POSITION" : 0,
                        "NORMAL" : 1,
                        "TEXCOORD_0" : 2
                    },
                    "indices" : 3,
                    "material" : 0
                },
                {
                    "attributes" : {
                        "POSITION" : 4,
                        "NORMAL" : 5,
                        "TEXCOORD_0" : 6
                    },
                    "indices" : 7,
                    "material" : 1
                }
            ]
        }
    ],
    "textures" : [
        {
            "sampler" : 0,
            "source" : 0
        },
        {
            "sampler" : 0,
            "source" : 0
        }
    ],
    "images" : [
        {
            "bufferView" : 4,
            "mimeType" : "image/png",
            "name" : "MageRoomTexture"
        }
    ],
    "accessors" : [
        {
            "bufferView" : 0,
            "componentType" : 5126,
            "count" : 1490,
            "max" : [
                2.0829010009765625,
                4.982719421386719,
                1.9999924898147583
            ],
            "min" : [
                -2.0962696075439453,
                -0.017282724380493164,
                -2.0000078678131104
            ],
            "type" : "VEC3"
        },
        {
            "bufferView" : 1,
            "componentType" : 5126,
            "count" : 1490,
            "type" : "VEC3"
        },
        {
            "bufferView" : 2,
            "componentType" : 5126,
            "count" : 1490,
            "type" : "VEC2"
        },
        {
            "bufferView" : 3,
            "componentType" : 5123,
            "count" : 2340,
            "type" : "SCALAR"
        },
        {
            "bufferView" : 5,
            "componentType" : 5126,
            "count" : 1870,
            "max" : [
                1.9915969371795654,
                5.025681972503662,
                2.0589210987091064
            ],
            "min" : [
                -1.9889267683029175,
                2.265947103500366,
                -2.0473783016204834
            ],
            "type" : "VEC3"
        },
        {
            "bufferView" : 6,
            "componentType" : 5126,
            "count" : 1870,
            "type" : "VEC3"
        },
        {
            "bufferView" : 7,
            "componentType" : 5126,
            "count" : 1870,
            "type" : "VEC2"
        },
        {
            "bufferView" : 8,
            "componentType" : 5123,
            "count" : 2874,
            "type" : "SCALAR"
        }
    ],
    "bufferViews" : [
        {
            "buffer" : 0,
            "byteLength" : 17880,
            "byteOffset" : 0
        },
        {
            "buffer" : 0,
            "byteLength" : 17880,
            "byteOffset" : 17880
        },
        {
            "buffer" : 0,
            "byteLength" : 11920,
            "byteOffset" : 35760
        },
        {
            "buffer" : 0,
            "byteLength" : 4680,
            "byteOffset" : 47680
        },
        {
            "buffer" : 0,
            "byteLength" : 1925,
            "byteOffset" : 52360
        },
        {
            "buffer" : 0,
            "byteLength" : 22440,
            "byteOffset" : 54288
        },
        {
            "buffer" : 0,
            "byteLength" : 22440,
            "byteOffset" : 76728
        },
        {
            "buffer" : 0,
            "byteLength" : 14960,
            "byteOffset" : 99168
        },
        {
            "buffer" : 0,
            "byteLength" : 5748,
            "byteOffset" : 114128
        }
    ],
    "samplers" : [
        {
            "magFilter" : 9729,
            "minFilter" : 9987
        }
    ],
    "buffers" : [
        {
            "byteLength" : 119876,
            "uri" : "data:application/octet-stream;base64,"
        }
    ]
}
