{
    "asset" : {
        "generator" : "Khronos glTF Blender I/O v1.8.19",
        "version" : "2.0"
    },
    "scene" : 0,
    "scenes" : [
        {
            "name" : "Scene",
            "nodes" : [
                0
            ]
        }
    ],
    "nodes" : [
        {
            "mesh" : 0,
            "name" : "Steps_Small"
        }
    ],
    "materials" : [
        {
            "doubleSided" : true,
            "name" : "Wood_Basic",
            "pbrMetallicRoughness" : {
                "baseColorTexture" : {
                    "index" : 0
                },
                "metallicFactor" : 0,
                "roughnessFactor" : 0.9363636374473572
            }
        }
    ],
    "meshes" : [
        {
            "name" : "Steps_Small",
            "primitives" : [
                {
                    "attributes" : {
                        "POSITION" : 0,
                        "NORMAL" : 1,
                        "TEXCOORD_0" : 2
                    },
                    "indices" : 3,
                    "material" : 0
                }
            ]
        }
    ],
    "textures" : [
        {
            "sampler" : 0,
            "source" : 0
        }
    ],
    "images" : [
        {
            "bufferView" : 4,
            "mimeType" : "image/png",
            "name" : "MageRoomTexture"
        }
    ],
    "accessors" : [
        {
            "bufferView" : 0,
            "componentType" : 5126,
            "count" : 720,
            "max" : [
                1,
                0.999858021736145,
                0.8510150909423828
            ],
            "min" : [
                -1,
                0,
                -1.004964828491211
            ],
            "type" : "VEC3"
        },
        {
            "bufferView" : 1,
            "componentType" : 5126,
            "count" : 720,
            "type" : "VEC3"
        },
        {
            "bufferView" : 2,
            "componentType" : 5126,
            "count" : 720,
            "type" : "VEC2"
        },
        {
            "bufferView" : 3,
            "componentType" : 5123,
            "count" : 1116,
            "type" : "SCALAR"
        }
    ],
    "bufferViews" : [
        {
            "buffer" : 0,
            "byteLength" : 8640,
            "byteOffset" : 0
        },
        {
            "buffer" : 0,
            "byteLength" : 8640,
            "byteOffset" : 8640
        },
        {
            "buffer" : 0,
            "byteLength" : 5760,
            "byteOffset" : 17280
        },
        {
            "buffer" : 0,
            "byteLength" : 2232,
            "byteOffset" : 23040
        },
        {
            "buffer" : 0,
            "byteLength" : 1925,
            "byteOffset" : 25272
        }
    ],
    "samplers" : [
        {
            "magFilter" : 9729,
            "minFilter" : 9987
        }
    ],
    "buffers" : [
        {
            "byteLength" : 27200,
            "uri" : "data:application/octet-stream;base64,"
        }
    ]
}
