{
    "asset" : {
        "generator" : "Khronos glTF Blender I/O v1.8.19",
        "version" : "2.0"
    },
    "scene" : 0,
    "scenes" : [
        {
            "name" : "Scene",
            "nodes" : [
                0
            ]
        }
    ],
    "nodes" : [
        {
            "mesh" : 0,
            "name" : "Portcullis_Wood"
        }
    ],
    "materials" : [
        {
            "doubleSided" : true,
            "name" : "Wood_Basic",
            "pbrMetallicRoughness" : {
                "baseColorTexture" : {
                    "index" : 0
                },
                "metallicFactor" : 0,
                "roughnessFactor" : 0.9363636374473572
            }
        },
        {
            "doubleSided" : true,
            "name" : "Metal_Rusty",
            "pbrMetallicRoughness" : {
                "baseColorTexture" : {
                    "index" : 1
                },
                "metallicFactor" : 0.7812742590904236,
                "roughnessFactor" : 0.6334152221679688
            }
        }
    ],
    "meshes" : [
        {
            "name" : "Cube.067",
            "primitives" : [
                {
                    "attributes" : {
                        "POSITION" : 0,
                        "NORMAL" : 1,
                        "TEXCOORD_0" : 2
                    },
                    "indices" : 3,
                    "material" : 0
                },
                {
                    "attributes" : {
                        "POSITION" : 4,
                        "NORMAL" : 5,
                        "TEXCOORD_0" : 6
                    },
                    "indices" : 7,
                    "material" : 1
                }
            ]
        }
    ],
    "textures" : [
        {
            "sampler" : 0,
            "source" : 0
        },
        {
            "sampler" : 0,
            "source" : 0
        }
    ],
    "images" : [
        {
            "bufferView" : 4,
            "mimeType" : "image/png",
            "name" : "MageRoomTexture"
        }
    ],
    "accessors" : [
        {
            "bufferView" : 0,
            "componentType" : 5126,
            "count" : 2442,
            "max" : [
                1.8032221794128418,
                3.9032223224639893,
                0.07734399288892746
            ],
            "min" : [
                -1.8032221794128418,
                0.3255798816680908,
                -0.0744200125336647
            ],
            "type" : "VEC3"
        },
        {
            "bufferView" : 1,
            "componentType" : 5126,
            "count" : 2442,
            "type" : "VEC3"
        },
        {
            "bufferView" : 2,
            "componentType" : 5126,
            "count" : 2442,
            "type" : "VEC2"
        },
        {
            "bufferView" : 3,
            "componentType" : 5123,
            "count" : 3858,
            "type" : "SCALAR"
        },
        {
            "bufferView" : 5,
            "componentType" : 5126,
            "count" : 8288,
            "max" : [
                1.4713242053985596,
                3.627321243286133,
                0.08767550438642502
            ],
            "min" : [
                -1.4713292121887207,
                0,
                -0.08808458596467972
            ],
            "type" : "VEC3"
        },
        {
            "bufferView" : 6,
            "componentType" : 5126,
            "count" : 8288,
            "type" : "VEC3"
        },
        {
            "bufferView" : 7,
            "componentType" : 5126,
            "count" : 8288,
            "type" : "VEC2"
        },
        {
            "bufferView" : 8,
            "componentType" : 5123,
            "count" : 10656,
            "type" : "SCALAR"
        }
    ],
    "bufferViews" : [
        {
            "buffer" : 0,
            "byteLength" : 29304,
            "byteOffset" : 0
        },
        {
            "buffer" : 0,
            "byteLength" : 29304,
            "byteOffset" : 29304
        },
        {
            "buffer" : 0,
            "byteLength" : 19536,
            "byteOffset" : 58608
        },
        {
            "buffer" : 0,
            "byteLength" : 7716,
            "byteOffset" : 78144
        },
        {
            "buffer" : 0,
            "byteLength" : 1925,
            "byteOffset" : 85860
        },
        {
            "buffer" : 0,
            "byteLength" : 99456,
            "byteOffset" : 87788
        },
        {
            "buffer" : 0,
            "byteLength" : 99456,
            "byteOffset" : 187244
        },
        {
            "buffer" : 0,
            "byteLength" : 66304,
            "byteOffset" : 286700
        },
        {
            "buffer" : 0,
            "byteLength" : 21312,
            "byteOffset" : 353004
        }
    ],
    "samplers" : [
        {
            "magFilter" : 9729,
            "minFilter" : 9987
        }
    ],
    "buffers" : [
        {
            "byteLength" : 374316,
            "uri" : "data:application/octet-stream;base64,"
        }
    ]
}
