{
    "asset" : {
        "generator" : "Khronos glTF Blender I/O v1.8.19",
        "version" : "2.0"
    },
    "scene" : 0,
    "scenes" : [
        {
            "name" : "Scene",
            "nodes" : [
                0
            ]
        }
    ],
    "nodes" : [
        {
            "mesh" : 0,
            "name" : "Door_Basement_Left"
        }
    ],
    "materials" : [
        {
            "doubleSided" : true,
            "name" : "Metal_Rusty",
            "pbrMetallicRoughness" : {
                "baseColorTexture" : {
                    "index" : 0
                },
                "metallicFactor" : 0.7812742590904236,
                "roughnessFactor" : 0.6334152221679688
            }
        },
        {
            "doubleSided" : true,
            "name" : "Wood_Basic",
            "pbrMetallicRoughness" : {
                "baseColorTexture" : {
                    "index" : 1
                },
                "metallicFactor" : 0,
                "roughnessFactor" : 0.9363636374473572
            }
        }
    ],
    "meshes" : [
        {
            "name" : "Door_Basement_Left",
            "primitives" : [
                {
                    "attributes" : {
                        "POSITION" : 0,
                        "NORMAL" : 1,
                        "TEXCOORD_0" : 2
                    },
                    "indices" : 3,
                    "material" : 0
                },
                {
                    "attributes" : {
                        "POSITION" : 4,
                        "NORMAL" : 5,
                        "TEXCOORD_0" : 6
                    },
                    "indices" : 7,
                    "material" : 1
                }
            ]
        }
    ],
    "textures" : [
        {
            "sampler" : 0,
            "source" : 0
        },
        {
            "sampler" : 0,
            "source" : 0
        }
    ],
    "images" : [
        {
            "bufferView" : 4,
            "mimeType" : "image/png",
            "name" : "MageRoomTexture"
        }
    ],
    "accessors" : [
        {
            "bufferView" : 0,
            "componentType" : 5126,
            "count" : 1214,
            "max" : [
                1.1694856882095337,
                1.7370822429656982,
                0.22182771563529968
            ],
            "min" : [
                -0.027170822024345398,
                0.45620208978652954,
                -0.12407089024782181
            ],
            "type" : "VEC3"
        },
        {
            "bufferView" : 1,
            "componentType" : 5126,
            "count" : 1214,
            "type" : "VEC3"
        },
        {
            "bufferView" : 2,
            "componentType" : 5126,
            "count" : 1214,
            "type" : "VEC2"
        },
        {
            "bufferView" : 3,
            "componentType" : 5123,
            "count" : 2064,
            "type" : "SCALAR"
        },
        {
            "bufferView" : 5,
            "componentType" : 5126,
            "count" : 1770,
            "max" : [
                1.204286813735962,
                2.1837358474731445,
                0.11443396657705307
            ],
            "min" : [
                0.027332907542586327,
                0.051364898681640625,
                -0.00012018700363114476
            ],
            "type" : "VEC3"
        },
        {
            "bufferView" : 6,
            "componentType" : 5126,
            "count" : 1770,
            "type" : "VEC3"
        },
        {
            "bufferView" : 7,
            "componentType" : 5126,
            "count" : 1770,
            "type" : "VEC2"
        },
        {
            "bufferView" : 8,
            "componentType" : 5123,
            "count" : 2700,
            "type" : "SCALAR"
        }
    ],
    "bufferViews" : [
        {
            "buffer" : 0,
            "byteLength" : 14568,
            "byteOffset" : 0
        },
        {
            "buffer" : 0,
            "byteLength" : 14568,
            "byteOffset" : 14568
        },
        {
            "buffer" : 0,
            "byteLength" : 9712,
            "byteOffset" : 29136
        },
        {
            "buffer" : 0,
            "byteLength" : 4128,
            "byteOffset" : 38848
        },
        {
            "buffer" : 0,
            "byteLength" : 1925,
            "byteOffset" : 42976
        },
        {
            "buffer" : 0,
            "byteLength" : 21240,
            "byteOffset" : 44904
        },
        {
            "buffer" : 0,
            "byteLength" : 21240,
            "byteOffset" : 66144
        },
        {
            "buffer" : 0,
            "byteLength" : 14160,
            "byteOffset" : 87384
        },
        {
            "buffer" : 0,
            "byteLength" : 5400,
            "byteOffset" : 101544
        }
    ],
    "samplers" : [
        {
            "magFilter" : 9729,
            "minFilter" : 9987
        }
    ],
    "buffers" : [
        {
            "byteLength" : 106944,
            "uri" : "data:application/octet-stream;base64,"
        }
    ]
}
