{
    "asset" : {
        "generator" : "Khronos glTF Blender I/O v1.8.19",
        "version" : "2.0"
    },
    "scene" : 0,
    "scenes" : [
        {
            "name" : "Scene",
            "nodes" : [
                0
            ]
        }
    ],
    "nodes" : [
        {
            "mesh" : 0,
            "name" : "Door_Wooden_Left"
        }
    ],
    "materials" : [
        {
            "doubleSided" : true,
            "name" : "Metal_Rusty",
            "pbrMetallicRoughness" : {
                "baseColorTexture" : {
                    "index" : 0
                },
                "metallicFactor" : 0.7812742590904236,
                "roughnessFactor" : 0.6334152221679688
            }
        },
        {
            "doubleSided" : true,
            "name" : "Wood_Basic",
            "pbrMetallicRoughness" : {
                "baseColorTexture" : {
                    "index" : 1
                },
                "metallicFactor" : 0,
                "roughnessFactor" : 0.9363636374473572
            }
        }
    ],
    "meshes" : [
        {
            "name" : "Door_Wooden_Round_Left",
            "primitives" : [
                {
                    "attributes" : {
                        "POSITION" : 0,
                        "NORMAL" : 1,
                        "TEXCOORD_0" : 2
                    },
                    "indices" : 3,
                    "material" : 0
                },
                {
                    "attributes" : {
                        "POSITION" : 4,
                        "NORMAL" : 5,
                        "TEXCOORD_0" : 6
                    },
                    "indices" : 7,
                    "material" : 1
                }
            ]
        }
    ],
    "textures" : [
        {
            "sampler" : 0,
            "source" : 0
        },
        {
            "sampler" : 0,
            "source" : 0
        }
    ],
    "images" : [
        {
            "bufferView" : 4,
            "mimeType" : "image/png",
            "name" : "MageRoomTexture"
        }
    ],
    "accessors" : [
        {
            "bufferView" : 0,
            "componentType" : 5126,
            "count" : 1223,
            "max" : [
                1.2306909561157227,
                1.6458367109298706,
                0.21552877128124237
            ],
            "min" : [
                -0.02774077281355858,
                0.36495649814605713,
                -0.11384183168411255
            ],
            "type" : "VEC3"
        },
        {
            "bufferView" : 1,
            "componentType" : 5126,
            "count" : 1223,
            "type" : "VEC3"
        },
        {
            "bufferView" : 2,
            "componentType" : 5126,
            "count" : 1223,
            "type" : "VEC2"
        },
        {
            "bufferView" : 3,
            "componentType" : 5123,
            "count" : 2064,
            "type" : "SCALAR"
        },
        {
            "bufferView" : 5,
            "componentType" : 5126,
            "count" : 1782,
            "max" : [
                1.317123532295227,
                2.2001423835754395,
                0.1174425557255745
            ],
            "min" : [
                0.020523134618997574,
                0.02624988555908203,
                -0.0028530023992061615
            ],
            "type" : "VEC3"
        },
        {
            "bufferView" : 6,
            "componentType" : 5126,
            "count" : 1782,
            "type" : "VEC3"
        },
        {
            "bufferView" : 7,
            "componentType" : 5126,
            "count" : 1782,
            "type" : "VEC2"
        },
        {
            "bufferView" : 8,
            "componentType" : 5123,
            "count" : 2706,
            "type" : "SCALAR"
        }
    ],
    "bufferViews" : [
        {
            "buffer" : 0,
            "byteLength" : 14676,
            "byteOffset" : 0
        },
        {
            "buffer" : 0,
            "byteLength" : 14676,
            "byteOffset" : 14676
        },
        {
            "buffer" : 0,
            "byteLength" : 9784,
            "byteOffset" : 29352
        },
        {
            "buffer" : 0,
            "byteLength" : 4128,
            "byteOffset" : 39136
        },
        {
            "buffer" : 0,
            "byteLength" : 1925,
            "byteOffset" : 43264
        },
        {
            "buffer" : 0,
            "byteLength" : 21384,
            "byteOffset" : 45192
        },
        {
            "buffer" : 0,
            "byteLength" : 21384,
            "byteOffset" : 66576
        },
        {
            "buffer" : 0,
            "byteLength" : 14256,
            "byteOffset" : 87960
        },
        {
            "buffer" : 0,
            "byteLength" : 5412,
            "byteOffset" : 102216
        }
    ],
    "samplers" : [
        {
            "magFilter" : 9729,
            "minFilter" : 9987
        }
    ],
    "buffers" : [
        {
            "byteLength" : 107628,
            "uri" : "data:application/octet-stream;base64,"
        }
    ]
}
